<svg viewBox="0 0 330 200" xmlns="http://www.w3.org/2000/svg"><g><g><g><g><g><line x1="30" y1="177" x2="25" y2="177" style="visibility: inherit;" fill="rgb(0, 0, 0)" stroke="rgb(204, 204, 204)" stroke-width="1px"></line><line x1="30" y1="160.9090909090909" x2="25" y2="160.9090909090909" style="visibility: inherit;" fill="rgb(0, 0, 0)" stroke="rgb(204, 204, 204)" stroke-width="1px"></line><line x1="30" y1="144.8181818181818" x2="25" y2="144.8181818181818" style="visibility: inherit;" fill="rgb(0, 0, 0)" stroke="rgb(204, 204, 204)" stroke-width="1px"></line><line x1="30" y1="128.72727272727272" x2="25" y2="128.72727272727272" style="visibility: inherit;" fill="rgb(0, 0, 0)" stroke="rgb(204, 204, 204)" stroke-width="1px"></line><line x1="30" y1="112.63636363636364" x2="25" y2="112.63636363636364" style="visibility: inherit;" fill="rgb(0, 0, 0)" stroke="rgb(204, 204, 204)" stroke-width="1px"></line><line x1="30" y1="96.54545454545453" x2="25" y2="96.54545454545453" style="visibility: inherit;" fill="rgb(0, 0, 0)" stroke="rgb(204, 204, 204)" stroke-width="1px"></line><line x1="30" y1="80.45454545454547" x2="25" y2="80.45454545454547" style="visibility: inherit;" fill="rgb(0, 0, 0)" stroke="rgb(204, 204, 204)" stroke-width="1px"></line><line x1="30" y1="64.36363636363636" x2="25" y2="64.36363636363636" style="visibility: inherit;" fill="rgb(0, 0, 0)" stroke="rgb(204, 204, 204)" stroke-width="1px"></line><line x1="30" y1="48.272727272727266" x2="25" y2="48.272727272727266" style="visibility: inherit;" fill="rgb(0, 0, 0)" stroke="rgb(204, 204, 204)" stroke-width="1px"></line><line x1="30" y1="32.18181818181817" x2="25" y2="32.18181818181817" style="visibility: inherit;" fill="rgb(0, 0, 0)" stroke="rgb(204, 204, 204)" stroke-width="1px"></line><line x1="30" y1="16.090909090909097" x2="25" y2="16.090909090909097" style="visibility: inherit;" fill="rgb(0, 0, 0)" stroke="rgb(204, 204, 204)" stroke-width="1px"></line><line x1="30" y1="0" x2="25" y2="0" style="visibility: inherit;" fill="rgb(0, 0, 0)" stroke="rgb(204, 204, 204)" stroke-width="1px"></line></g><g transform="translate(20, 0)"><text x="0" y="177" dx="0em" dy="0.3em" style="text-anchor: end; visibility: hidden; font-family: Roboto, sans-serif; font-size: 12px; font-weight: 200;" fill="rgb(33, 33, 33)" stroke="none" stroke-width="1px">8</text><text x="0" y="160.9090909090909" dx="0em" dy="0.3em" style="text-anchor: end; visibility: inherit; font-family: Roboto, sans-serif; font-size: 12px; font-weight: 200;" fill="rgb(33, 33, 33)" stroke="none" stroke-width="1px">9</text><text x="0" y="144.8181818181818" dx="0em" dy="0.3em" style="text-anchor: end; visibility: hidden; font-family: Roboto, sans-serif; font-size: 12px; font-weight: 200;" fill="rgb(33, 33, 33)" stroke="none" stroke-width="1px">10</text><text x="0" y="128.72727272727272" dx="0em" dy="0.3em" style="text-anchor: end; visibility: inherit; font-family: Roboto, sans-serif; font-size: 12px; font-weight: 200;" fill="rgb(33, 33, 33)" stroke="none" stroke-width="1px">11</text><text x="0" y="112.63636363636364" dx="0em" dy="0.3em" style="text-anchor: end; visibility: hidden; font-family: Roboto, sans-serif; font-size: 12px; font-weight: 200;" fill="rgb(33, 33, 33)" stroke="none" stroke-width="1px">12</text><text x="0" y="96.54545454545453" dx="0em" dy="0.3em" style="text-anchor: end; visibility: inherit; font-family: Roboto, sans-serif; font-size: 12px; font-weight: 200;" fill="rgb(33, 33, 33)" stroke="none" stroke-width="1px">13</text><text x="0" y="80.45454545454547" dx="0em" dy="0.3em" style="text-anchor: end; visibility: hidden; font-family: Roboto, sans-serif; font-size: 12px; font-weight: 200;" fill="rgb(33, 33, 33)" stroke="none" stroke-width="1px">14</text><text x="0" y="64.36363636363636" dx="0em" dy="0.3em" style="text-anchor: end; visibility: inherit; font-family: Roboto, sans-serif; font-size: 12px; font-weight: 200;" fill="rgb(33, 33, 33)" stroke="none" stroke-width="1px">15</text><text x="0" y="48.272727272727266" dx="0em" dy="0.3em" style="text-anchor: end; visibility: hidden; font-family: Roboto, sans-serif; font-size: 12px; font-weight: 200;" fill="rgb(33, 33, 33)" stroke="none" stroke-width="1px">16</text><text x="0" y="32.18181818181817" dx="0em" dy="0.3em" style="text-anchor: end; visibility: inherit; font-family: Roboto, sans-serif; font-size: 12px; font-weight: 200;" fill="rgb(33, 33, 33)" stroke="none" stroke-width="1px">17</text><text x="0" y="16.090909090909097" dx="0em" dy="0.3em" style="text-anchor: end; visibility: hidden; font-family: Roboto, sans-serif; font-size: 12px; font-weight: 200;" fill="rgb(33, 33, 33)" stroke="none" stroke-width="1px">18</text><text x="0" y="0" dx="0em" dy="0.3em" style="text-anchor: end; visibility: hidden; font-family: Roboto, sans-serif; font-size: 12px; font-weight: 200;" fill="rgb(33, 33, 33)" stroke="none" stroke-width="1px">19</text></g><line x1="30" y1="0" x2="30" y2="177" fill="rgb(0, 0, 0)" stroke="rgb(204, 204, 204)" stroke-width="1px"></line></g></g><g transform="translate(30, 0)" clip-path="url(#clip_0)"><clipPath id="clip_0"><rect width="300" height="177"></rect></clipPath><g><g><g><line x1="0" y1="0" x2="0" y2="177" fill="rgb(0, 0, 0)" stroke="rgb(66, 66, 66)" stroke-width="1px" opacity="0.25"></line><line x1="25" y1="0" x2="25" y2="177" fill="rgb(0, 0, 0)" stroke="rgb(66, 66, 66)" stroke-width="1px" opacity="0.25"></line><line x1="50" y1="0" x2="50" y2="177" fill="rgb(0, 0, 0)" stroke="rgb(66, 66, 66)" stroke-width="1px" opacity="0.25"></line><line x1="75" y1="0" x2="75" y2="177" fill="rgb(0, 0, 0)" stroke="rgb(66, 66, 66)" stroke-width="1px" opacity="0.25"></line><line x1="100" y1="0" x2="100" y2="177" fill="rgb(0, 0, 0)" stroke="rgb(66, 66, 66)" stroke-width="1px" opacity="0.25"></line><line x1="125" y1="0" x2="125" y2="177" fill="rgb(0, 0, 0)" stroke="rgb(66, 66, 66)" stroke-width="1px" opacity="0.25"></line><line x1="150" y1="0" x2="150" y2="177" fill="rgb(0, 0, 0)" stroke="rgb(66, 66, 66)" stroke-width="1px" opacity="0.25"></line><line x1="175" y1="0" x2="175" y2="177" fill="rgb(0, 0, 0)" stroke="rgb(66, 66, 66)" stroke-width="1px" opacity="0.25"></line><line x1="200" y1="0" x2="200" y2="177" fill="rgb(0, 0, 0)" stroke="rgb(66, 66, 66)" stroke-width="1px" opacity="0.25"></line><line x1="225" y1="0" x2="225" y2="177" fill="rgb(0, 0, 0)" stroke="rgb(66, 66, 66)" stroke-width="1px" opacity="0.25"></line><line x1="250" y1="0" x2="250" y2="177" fill="rgb(0, 0, 0)" stroke="rgb(66, 66, 66)" stroke-width="1px" opacity="0.25"></line><line x1="275" y1="0" x2="275" y2="177" fill="rgb(0, 0, 0)" stroke="rgb(66, 66, 66)" stroke-width="1px" opacity="0.25"></line><line x1="300" y1="0" x2="300" y2="177" fill="rgb(0, 0, 0)" stroke="rgb(66, 66, 66)" stroke-width="1px" opacity="0.25"></line></g><g><line x1="0" y1="177" x2="300" y2="177" fill="rgb(0, 0, 0)" stroke="rgb(66, 66, 66)" stroke-width="1px" opacity="0.25"></line><line x1="0" y1="160.9090909090909" x2="300" y2="160.9090909090909" fill="rgb(0, 0, 0)" stroke="rgb(66, 66, 66)" stroke-width="1px" opacity="0.25"></line><line x1="0" y1="144.8181818181818" x2="300" y2="144.8181818181818" fill="rgb(0, 0, 0)" stroke="rgb(66, 66, 66)" stroke-width="1px" opacity="0.25"></line><line x1="0" y1="128.72727272727272" x2="300" y2="128.72727272727272" fill="rgb(0, 0, 0)" stroke="rgb(66, 66, 66)" stroke-width="1px" opacity="0.25"></line><line x1="0" y1="112.63636363636364" x2="300" y2="112.63636363636364" fill="rgb(0, 0, 0)" stroke="rgb(66, 66, 66)" stroke-width="1px" opacity="0.25"></line><line x1="0" y1="96.54545454545453" x2="300" y2="96.54545454545453" fill="rgb(0, 0, 0)" stroke="rgb(66, 66, 66)" stroke-width="1px" opacity="0.25"></line><line x1="0" y1="80.45454545454547" x2="300" y2="80.45454545454547" fill="rgb(0, 0, 0)" stroke="rgb(66, 66, 66)" stroke-width="1px" opacity="0.25"></line><line x1="0" y1="64.36363636363636" x2="300" y2="64.36363636363636" fill="rgb(0, 0, 0)" stroke="rgb(66, 66, 66)" stroke-width="1px" opacity="0.25"></line><line x1="0" y1="48.272727272727266" x2="300" y2="48.272727272727266" fill="rgb(0, 0, 0)" stroke="rgb(66, 66, 66)" stroke-width="1px" opacity="0.25"></line><line x1="0" y1="32.18181818181817" x2="300" y2="32.18181818181817" fill="rgb(0, 0, 0)" stroke="rgb(66, 66, 66)" stroke-width="1px" opacity="0.25"></line><line x1="0" y1="16.090909090909097" x2="300" y2="16.090909090909097" fill="rgb(0, 0, 0)" stroke="rgb(66, 66, 66)" stroke-width="1px" opacity="0.25"></line><line x1="0" y1="0" x2="300" y2="0" fill="rgb(0, 0, 0)" stroke="rgb(66, 66, 66)" stroke-width="1px" opacity="0.25"></line></g></g></g><g><g><line x1="0" y1="305.72727272727275" x2="300" y2="305.72727272727275" fill="rgb(0, 0, 0)" stroke="rgb(153, 153, 153)" stroke-width="1.5px"></line></g></g><g><g><line x1="25" y1="0" x2="25" y2="177" fill="rgb(0, 0, 0)" stroke="rgb(153, 153, 153)" stroke-width="1.5px"></line></g></g><g><g><g><g><g><path stroke="rgb(255, 112, 67)" stroke-width="2px" d="M25.25575,20.743936885486953L25.511499999999998,19.809887799349692L25.76725,19.285808736627743L26.023000000000003,19.128947171297934L26.27875,18.46424206820402L26.5345,19.54238527471368L26.79025,21.551569851961997L27.046,21.480428175492726L27.30175,21.56636290116743L27.5575,22.192581523548476L27.813250000000004,23.448640303178273L28.069,23.971430345015087L28.32475,25.17847564003684L28.5805,26.482412338256836L28.83625,26.904351841319688L29.092,25.762432791969996L29.34775,27.199997988614175L29.6035,27.886493682861328L29.85925,28.38967219266024L30.115000000000002,28.711467049338598L30.370749999999997,29.09154406460848L30.6265,30.30761250582609L30.88225,32.27493459528144L31.138,31.71691131591797L31.393749999999997,31.181261756203394L31.6495,32.539245258678086L31.905250000000002,34.63709605823863L32.161,35.42293843356046L32.41675,36.53521000255238L32.6725,34.67432420903985L32.92825,34.39571155201305L33.184,35.28964753584429L33.43975,33.91260493885387L33.6955,31.05229828574441L33.95125,30.469047026200734L34.207,30.83393200961027L34.46275,29.367762825705785L34.7185,28.26276501742277L34.97425,27.259139494462453L35.23,25.474827679720786L35.48575,25.13237779790704L35.7415,22.137920899824657L35.99725,24.44913534684614L36.253,26.817557768388234L36.50875,27.14162375710227L36.7645,26.196433847600773L37.02025,24.223188400268555L37.275999999999996,26.004523190585044L37.53175,26.939891988580868L37.7875,26.817496386441324L38.04325,27.73346848921343L38.299,28.64143024791371L38.55475,29.702754800969913L38.8105,30.77383908358488L39.066250000000004,31.047295657071206L39.321999999999996,29.887514461170547L39.577749999999995,29.760177612304688L39.8335,30.055056485262778L40.08925,28.207398501309488L40.345000000000006,28.101545333862305L40.60075,29.46984100341797L40.8565,29.308529246937148L41.11225,30.727127421985976L41.368,31.551701805808325L41.62375,30.077338131991294L41.8795,29.627377770163793L42.13525,31.89709802107378L42.391,32.641292745416806L42.646750000000004,33.71566096219149L42.902499999999996,33.94458493319425L43.158249999999995,34.14637808366255L43.414,33.31879598444159L43.66975,33.99264699762519L43.92550000000001,33.65793124112216L44.18125,34.87047022039239L44.437,36.025647770274766L44.692750000000004,36.35272147438742L44.9485,36.63805545460094L45.20425,37.20141896334562L45.46,38.582758296619765L45.71575,39.25080871582031L45.9715,40.50938415527344L46.227250000000005,43.08091943914239L46.483,45.82567457719282L46.738749999999996,47.10361602089621L46.9945,44.80682633139871L47.25025,44.09715895219282L47.506,42.466885133223094L47.76175,46.49424674294211L48.0175,47.10469020496715L48.273250000000004,46.14746943387118L48.529,47.19719279896129L48.784749999999995,48.37960858778521L49.040499999999994,46.34557966752485L49.29625,48.753424644470215L49.552,49.79971062053334L49.807750000000006,48.39371109008789L50.0635,51.04389199343595L50.31925,50.41916188326749L50.575,49.15988055142489L50.83075,52.91680864854292L51.0865,52.450536034323946L51.34225,55.29720054973256L51.598,53.64183685996316L51.85375,47.243259950117626L52.109500000000004,47.73600352894176L52.365249999999996,62.095189788124785L52.620999999999995,55.41783142089844L52.87675,53.50648966702548L53.1325,60.9894400509921L53.388250000000006,53.68089112368497L53.644,54.145797989585176L53.89975,60.29266288063742L54.1555,48.248420021750704L54.41125,50.734097307378605L54.666999999999994,50.56132247231223L54.92275,60.06548829512163L55.1785,54.07830853895708L55.43425,48.524255145679824L55.690000000000005,43.318528955633L55.94575,49.1046674901789L56.201499999999996,46.91968501697887L56.45725,40.73094229264692L56.713,50.564775206825956L56.96875000000001,59.889966617931016L57.2245,58.175522804260254L57.48025,54.537675684148624L57.736000000000004,54.34292611208829L57.99175,54.749305291609325L58.247499999999995,51.65889306501909L58.50325,50.2361516085538L58.759,57.29642590609464L59.01475,51.83410783247515L59.270500000000006,51.49128965897993L59.52625,55.28048931468617L59.782,50.73161133852872L60.03775,51.44292068481445L60.2935,49.25865944949064L60.549249999999994,57.521851106123485L60.805,58.57432131333784L61.06075,58.78150072964755L61.316500000000005,44.39240611683238L61.572250000000004,48.762647281993516L61.827999999999996,55.814635016701445L62.08375,58.72654854167592L62.3395,53.92272064902566L62.59525,55.62556327473033L62.851000000000006,55.66210087862882L63.10675,52.934578722173526L63.3625,56.19471203197133L63.61825,61.74919509887695L63.874,52.4400090304288L64.12975,51.54363311420787L64.3855,55.55653927542947L64.64125,53.83066307414662L64.897,56.43256707624956L65.15275,57.89603545448996L65.4085,56.61101974140514L65.66425,57.464597095142715L65.92,54.538289503617726L66.17575000000001,61.54505408893932L66.4315,61.721465804360136L66.68724999999999,57.58840448206122L66.943,58.8623407537287L67.19875,58.74279941212047L67.45450000000001,58.86482672257856L67.71025,58.94387132471259L67.966,56.407354441556066L68.22175,56.848920822143555L68.4775,53.60738624225963L68.73325,60.37845949693159L68.989,62.36560795523904L69.24475,52.46721657839689L69.5005,55.10650218616832L69.75625000000001,56.33090322667901L70.012,52.86417362906717L70.26774999999999,53.95902807062323L70.5235,58.611933101307265L70.77925,67.43942434137519L71.035,56.91476830569181L71.29075,55.57286687330767L71.5465,51.07183612476695L71.80225,50.97812123732134L72.058,59.194570541381836L72.31375,63.31897700916637L72.5695,57.180429371920496L72.82525,57.811773386868566L73.081,55.508692047812715L73.33675000000001,56.99586920304731L73.5925,56.96339815313165L73.84825,55.74722229350697L74.104,52.543867284601376L74.35975,55.64279625632547L74.6155,56.14370363408868L74.87125,54.718353444879696L75.127,55.98001332716509L75.38274999999999,54.592842708934434L75.63850000000001,53.60766246102072L75.89425,56.02471473000266L76.15,54.882626880298965L76.40575,54.2903831655329L76.66149999999999,60.62131716988303L76.91725000000001,56.48423533006147L77.173,50.44454331831499L77.42875000000001,58.74095795371316L77.6845,53.43685184825551L77.94024999999999,46.75864947925914L78.196,51.83659380132501L78.45175,50.61225414276123L78.70750000000001,49.21510895815763L78.96325,54.24058706110175L79.219,52.44651551680132L79.47475,49.98198431188409L79.73049999999999,49.68033807927911L79.98625,49.62975935502485L80.242,52.634620493108585L80.49775,64.38803568753329L80.7535,58.68634336644952L81.00925,59.568816271695226L81.26499999999999,66.35274904424493L81.52075,61.78568666631524L81.7765,61.09966668215665L82.03225,62.634092591025606L82.288,56.32292357358065L82.54374999999999,58.357796495611026L82.79950000000001,61.87103826349433L83.05525,64.3848131353205L83.311,60.4927680275657L83.56675,53.3068755756725L83.82249999999999,59.406062039462L84.07825000000001,68.05812367525968L84.334,70.6074693853205L84.58975000000001,55.58457547968085L84.8455,53.42215087197043L85.10125,54.291810295798555L85.357,65.30799761685458L85.61275,58.27091034975919L85.8685,58.58409638838335L86.12425,62.59112522818826L86.38,61.830894470214844L86.63575,58.37631849809126L86.8915,44.30036388744008L87.14725,59.29888916015625L87.403,57.91196406971324L87.65875,49.5675794428045L87.9145,44.753393346613095L88.17025,48.1385463367809L88.42599999999999,46.53043140064586L88.68175000000001,49.4615421295166L88.9375,48.91488985581831L89.19325,43.000324942848906L89.449,55.578130375255235L89.70474999999999,56.59102457219903L89.96050000000001,59.024849458174266L90.21625,53.75158778103915L90.47200000000001,49.85068832744252L90.72775,42.56739807128906L90.98349999999999,46.049994902177296L91.23925,48.73128110712226L91.495,52.88113039190118L91.75075,59.727503949945614L92.0065,53.48222845250909L92.26225,54.87521501020952L92.518,59.509766838767305L92.77374999999999,48.48748735948042L93.0295,50.21347097917036L93.28525,56.107595703818575L93.541,59.33171315626665L93.79675,56.285557313398876L94.0525,57.84011650085449L94.30824999999999,59.01851177215576L94.56400000000001,58.378896539861515L94.81975,55.432025996121496L95.0755,56.89713634144176L95.33125,57.48060243779962L95.58699999999999,59.18163429607045L95.84275000000001,53.4856198050759L96.0985,58.989002401178524L96.35425000000001,61.08944658799604L96.61,61.00544539364901L96.86574999999999,60.312228376215145L97.12150000000001,59.59846375205301L97.37725,69.0632530559193L97.633,66.73732228712603L97.88875,64.48692200400613L98.1445,75.89179515838623L98.40025,66.95289568467572L98.656,65.758356961337L98.91175,69.73299147865988L99.1675,66.52811726656827L99.42325,63.274735970930614L99.679,63.13435545834628L99.93475,66.84949779510498L100.1905,62.80470371246338L100.44625,55.1154332594438L100.702,71.62891101837158L100.95775,61.44363576715644L101.2135,53.7370556051081L101.46924999999999,46.464844790371984L101.72500000000001,47.65399724786933L101.98075,52.29683563926004L102.2365,86.87093847448175L102.49225,78.65375258705832L102.74799999999999,75.24088564786044L103.00375000000001,81.5277320688421L103.2595,75.19994388927113L103.51525,73.59848889437589L103.771,66.88287422873758L104.02674999999999,55.70443907651034L104.2825,54.49604337865655L104.53825,81.92913931066339L104.794,54.94905749234286L105.04975,63.82645225524902L105.3055,87.58932209014893L105.56125,75.37104606628418L105.817,72.93995267694648L106.07275,82.36062370647083L106.3285,73.39401028373025L106.58425,73.9003653092818L106.84,66.10327746651389L107.09575,69.73708872361615L107.35149999999999,73.1951941576871L107.60725000000001,79.09192761507902L107.863,73.56683115525678L108.11875,68.60904199426825L108.3745,64.8926566730846L108.63024999999999,83.54282465848055L108.88600000000001,72.8783712387085L109.14175,67.69150465184991L109.3975,79.88162170756947L109.65325,74.80627077276056L109.90899999999999,75.00698973915793L110.16475000000001,80.7863916050304L110.4205,80.90261832150546L110.67625,83.49187764254484L110.932,90.32767816023394L111.18775,58.94342630559747L111.4435,61.534036029468886L111.69925,81.4043697010387L111.955,52.54761158336293L112.21075,56.51369866457853L112.4665,64.19172087582675L112.72225,63.94668414375998L112.978,77.82933165810324L113.23375,91.21265237981623L113.4895,74.23706063357267L113.74525,74.80691528320312L114.001,72.57351779937744L114.25675,80.18788693167947L114.51249999999999,83.38829560713336L114.76825000000001,79.18447624553333L115.024,63.74360197240655L115.27974999999999,70.49426572973077L115.5355,73.33970260620117L115.79124999999999,88.6384162902832L116.04700000000001,90.67930464311078L116.30275,85.84426403045654L116.5585,78.0857547413219L116.81425,79.62639557231556L117.07,77.20005928386341L117.32575,76.04592522707853L117.5815,73.71525270288642L117.83725,75.24717729741876L118.093,72.1808114485307L118.34875,89.88603505221279L118.6045,87.63301069086249L118.86025000000001,87.49614429473877L119.116,80.2766605723988L119.37175,81.6152627251365L119.6275,78.80794403769754L119.88325,76.07305604761298L120.139,84.1840972033414L120.39474999999999,89.99532560868695L120.65050000000001,77.96285273812033L120.90625,90.54983477158979L121.16199999999999,94.60316094485195L121.41775,70.05949739976361L121.67349999999999,76.16100103204901L121.92925000000001,79.70455013621937L122.185,83.25715307755902L122.44075,81.35719767483798L122.6965,89.20963668823242L122.95224999999999,94.10803881558506L123.20800000000001,77.0807481245561L123.46375,79.0073893286965L123.7195,75.32876925034955L123.97525,95.01415911587803L124.231,86.10294290022418L124.48675,78.00626512007281L124.7425,85.37642617659137L124.99825,90.27826569297098L125.254,87.3416919708252L125.50975,82.34658258611505L125.7655,74.00052530115302L126.02125,66.1697080785578L126.277,74.87115149064496L126.53275000000001,71.21777473796497L126.7885,70.63051830638538L127.04424999999999,88.23100896315142L127.3,86.55144544081256L127.55574999999999,90.13082625649191L127.81150000000001,97.97008349678732L128.06725,97.91160184686834L128.32299999999998,89.15532901070334L128.57875,69.3169753334739L128.8345,75.75916411659934L129.09025,78.86355608159845L129.346,82.89071819999002L129.60174999999998,84.89539120414041L129.85750000000002,89.18661845814098L130.11325,90.75870219143955L130.369,98.7352861924605L130.62475,90.88878588242963L130.88049999999998,78.51855884898792L131.13625000000002,75.36891304362904L131.392,88.36073970794678L131.64775,93.47466919638894L131.9035,73.39350388266824L132.15925,81.7770655371926L132.415,80.6938583200628L132.67075,83.66293378309771L132.9265,88.35750181024726L133.18225,88.49519686265424L133.438,79.48682837052777L133.69375,80.23212796991523L133.9495,76.25907403772528L134.20525,79.6141345284202L134.461,81.29929915341464L134.71675,86.53846315904096L134.9725,99.10173641551624L135.22825,88.1108077656139L135.48399999999998,88.86249108748004L135.73975000000002,95.02154029499401L135.9955,77.46128550442782L136.25125,77.26196297732267L136.507,82.04958603598855L136.76274999999998,84.01439146562055L137.01850000000002,87.44057828729804L137.27425,89.50637236508457L137.53,91.79088566519998L137.78575,82.16981792449951L138.04149999999998,76.97716608914462L138.29725,77.59328738125888L138.553,75.8577895597978L138.80875,72.37140239368786L139.0645,82.20439130609687L139.32025,83.77366681532428L139.576,72.80841116471723L139.83175,50.49193018132989L140.0875,91.91968033530496L140.34325,93.03778318925336L140.599,86.81968454881147L140.85475,91.31910402124578L141.1105,84.58022559772839L141.36624999999998,75.39852983301337L141.622,87.49379643526945L141.87775,84.4433745470914L142.1335,78.40842429074374L142.38925,80.54046483473346L142.64499999999998,81.63947790319268L142.90075000000002,87.08614358035001L143.1565,96.26828436418012L143.41225,84.19844523343173L143.668,72.88651969216086L143.92374999999998,88.95635942979291L144.17950000000002,92.26854463057086L144.43525,92.30595692721279L144.691,66.51099170338024L144.94675,83.83230192011054L145.2025,92.61213007840244L145.45825,76.30905428799716L145.714,80.38022726232354L145.96975,82.60507731004193L146.2255,88.20802142403342L146.48125,103.59069026600231L146.737,90.5911601673473L146.99275,79.38740496201947L147.2485,98.38927615772594L147.50425,89.25625627691096L147.76,79.23867650465533L148.01575,91.30090427398682L148.2715,93.9615507992831L148.52724999999998,98.25937661257656L148.78300000000002,93.46351302753796L149.03875,94.84987033497204L149.2945,101.54482997547497L149.55025,94.41744986447422L149.80599999999998,102.23912117697976L150.06175000000002,102.40657112815164L150.31750000000002,102.11172294616699L150.57325,97.53533051230691L150.829,85.71002171256326L151.08475,82.90144469521262L151.3405,91.76031745563854L151.59625,92.57698891379617L151.852,97.73360954631458L152.10774999999998,85.88136941736396L152.3635,86.74627174030651L152.61925,89.75151651555842L152.87500000000003,94.55239807475697L153.13075,88.73819264498623L153.3865,83.56031851335004L153.64225000000002,70.69421742179178L153.898,78.01108360290527L154.15375,83.38462803580545L154.4095,100.46304988861084L154.66525,96.88666144284336L154.921,97.52821020646527L155.17675,94.21892530267888L155.43249999999998,92.60651363026012L155.68824999999998,93.276574308222L155.94400000000002,89.7855067686601L156.19975000000002,99.18441789800471L156.4555,98.76194130290638L156.71125,83.82780569249933L156.967,88.86635815013538L157.22275,89.98286507346414L157.4785,88.18070645765826L157.73425,79.28397638147528L157.98999999999998,82.59619227322665L158.24575,95.44958730177447L158.5015,92.1515966762196L158.75725000000003,90.05297860232265L159.013,81.17104157534513L159.26875,97.48175941814075L159.52450000000002,96.54269235784358L159.78025,96.83457886088978L160.036,98.11394743485883L160.29175,94.91298632188276L160.54749999999999,91.25517472353847L160.80325,84.88802537051114L161.059,90.12312282215466L161.31474999999998,91.60184461420232L161.57049999999998,79.11844461614434L161.82625000000002,83.34457631544635L162.08200000000002,82.66389656066895L162.33775,84.34838598424737L162.5935,94.15840270302512L162.84925,95.67214289578526L163.105,95.64780495383523L163.36075,86.54733285036954L163.6165,89.75697950883344L163.87224999999998,98.13518558848988L164.128,94.25966756994075L164.38375000000002,93.59666581587359L164.63950000000003,92.52403163909912L164.89525,78.49836418845437L165.151,82.60384967110373L165.40675000000002,87.68191675706342L165.6625,88.83143182234332L165.91825,92.27212012897839L166.174,94.91171264648438L166.42974999999998,88.55320280248469L166.6855,88.72987539117986L166.94125,84.96745360981335L167.19699999999997,93.31575133583762L167.45274999999998,91.43553022904828L167.70850000000002,93.54953982613303L167.96425000000002,84.4440344030207L168.22,89.84248456087978L168.47575,90.3494380604137L168.7315,87.73582545193759L168.98725,87.16009348089044L169.243,93.79882725802334L169.49875,96.84128483858974L169.75449999999998,94.80676486275412L170.01024999999998,92.49140713431619L170.26600000000002,87.78321231495251L170.52175000000003,83.84269081462513L170.7775,86.2519322308627L171.03325,84.71423773332074L171.28900000000002,82.30224947495893L171.54475,87.19606330178L171.8005,82.23812068592419L172.05625,88.80735475366765L172.31199999999998,89.65523893182927L172.56775,91.78052746165882L172.8235,90.91722106933594L173.07924999999997,90.91030025482178L173.335,89.72031914104114L173.59075,88.96877392855556L173.84650000000002,91.83681470697576L174.10225,91.06857360493053L174.358,93.93095189874822L174.61375,92.9305489280007L174.8695,93.99222642725164L175.12525,95.51540409434925L175.381,93.26989902149548L175.63674999999998,86.91932279413398L175.89249999999998,85.6887221769853L176.14825000000002,89.67636966705322L176.40400000000002,89.90096621079877L176.65975,85.2960772080855L176.9155,80.78786477175626L177.17125000000001,82.88278458335184L177.427,84.79942053014581L177.68275,90.64712515744297L177.9385,92.97910204800694L178.19424999999998,97.4263008291071L178.45,94.99302838065408L178.70575,91.90600750663064L178.96149999999997,94.15961499647662L179.21725,93.95199056105182L179.473,96.93242168426514L179.72875000000002,92.69583970850164L179.9845,89.25981642983176L180.24025,95.68517121401699L180.496,97.04495013843884L180.75175,94.62320215051824L181.0075,88.08987652171741L181.26325,83.82462917674671L181.51899999999998,73.20357279344037L181.77474999999998,92.20601177215576L182.03050000000002,94.33773006092419L182.28625000000002,94.70678901672363L182.542,100.0122915614735L182.79775,91.69690990447998L183.0535,83.53799083016135L183.30925,79.16136594252154L183.565,90.46575684980914L183.82075,95.29103773290461L184.07649999999998,69.99681108648126L184.33225,93.72866769270465L184.588,103.78995141116054L184.84374999999997,95.89586474678732L185.0995,97.67684659090908L185.35525,99.35527454723011L185.61100000000002,60.600462653420195L185.86675,94.24910987507214L186.1225,104.20774763280696L186.37825,78.5391524921764L186.634,104.36215392026035L186.88975,100.62178360332142L187.1455,71.00929095528342L187.40124999999998,96.33654108914463L187.65699999999998,97.2338377345692L187.91275000000002,100.64343608509411L188.16850000000002,99.8268873908303L188.42425,99.229303446683L188.68,95.95181439139627L188.93575,96.96865237842907L189.1915,92.64277501539752L189.44725,91.7226903221824L189.703,106.63540363311768L189.95874999999998,110.1356017372825L190.2145,109.48572037436746L190.47025000000002,105.47720302234997L190.72599999999997,86.69012260437012L190.98175,79.7730523889715L191.2375,99.25405571677469L191.49325000000002,98.47030032764782L191.749,98.43769116835162L192.00475,101.83116141232578L192.2605,109.56240177154541L192.51624999999999,110.02186098965733L192.772,107.419864914634L193.02775,105.99021798914129L193.28349999999998,104.79618566686457L193.53925,105.2060636173595L193.79500000000002,82.87514253096148L194.05075000000002,90.04504498568447L194.3065,93.11962066997181L194.56225,86.81434431943026L194.818,91.64944631403142L195.07375,96.60679045590489L195.3295,93.39438160982998L195.58525,99.49353738264605L195.84099999999998,106.01724139126866L196.09675,106.4297894564542L196.35250000000002,98.41120485825971L196.60825,95.42029276761143L196.864,82.83756143396552L197.11975,98.1259169145064L197.37550000000002,100.12824205918744L197.63125,92.45658822493121L197.887,98.25492642142557L198.14275,94.12333826585248L198.39849999999998,77.89591572501443L198.65425,101.00330309434369L198.91,99.48391576246783L199.16574999999997,95.44900417327881L199.4215,81.75957168232311L199.67725000000002,87.90312194824219L199.93300000000002,98.78864244981244L200.18875,107.46777352419765L200.4445,103.75256980549206L200.70025,100.86568476937033L200.956,110.08181580630215L201.21175,107.55620956420898L201.4675,99.34261452067982L201.72324999999998,83.558461709456L201.97899999999998,98.1261470968073L202.23475000000002,107.27761225266889L202.4905,114.82404691522771L202.74625,117.1121510592374L203.002,113.9397325515747L203.25775000000002,85.53756913271818L203.5135,103.70618039911443L203.76925,110.6044523932717L204.025,108.07778731259434L204.28074999999998,110.80820976604114L204.5365,111.8478511463512L204.79225,108.35695240714334L205.04799999999997,96.75117614052512L205.30375,102.63824194127864L205.5595,116.53706359863281L205.81525000000002,89.28920303691517L206.071,100.87441635131836L206.32675,112.50853573192249L206.5825,114.88920385187322L206.83825,106.97734711386941L207.094,103.18765640258789L207.34975,119.33413150093772L207.60549999999998,118.07121328874067L207.86124999999998,121.4933182109486L208.11700000000002,121.88381481170654L208.37275,114.18770027160645L208.6285,116.10574800317937L208.88425,131.00730514526367L209.14000000000001,117.30604128404096L209.39575,115.48608190363103L209.6515,133.99952160228383L209.90725,109.69906867634167L210.16299999999998,110.83237890763715L210.41875,122.5346475947987L210.67450000000002,118.33558533408426L210.93024999999997,120.58676823702724L211.186,123.50339282642712L211.44175,119.88615469499067L211.69750000000002,111.95025157928467L211.95325,108.62968774275348L212.209,114.92719927701084L212.46475,122.3780162117698L212.7205,126.36810363422741L212.97625,120.65214001048695L213.232,114.30902168967508L213.48774999999998,112.10606965151699L213.74349999999998,119.44799501245672L213.99925000000002,123.47400621934369L214.255,109.68444442749023L214.51075,111.48703271692449L214.7665,110.77319136532871L215.02225,114.88168456337668L215.278,111.60508554632014L215.53375,114.65335906635632L215.7895,110.43821473555133L216.04524999999998,106.98199679634787L216.301,102.28419087149881L216.55675000000002,110.61488732424648L216.8125,119.72524192116477L217.06825,106.16776527057995L217.324,115.3956969868053L217.57975000000002,124.72081167047673L217.8355,119.43881841139361L218.09125,120.693603515625L218.347,122.88849917325108L218.60275,113.24484287608753L218.8585,108.28093086589466L219.11425,106.25262581218372L219.36999999999998,110.4521484375L219.62575,108.15632551366633L219.88150000000002,104.4392803365534L220.13725,133.61728087338534L220.393,119.87151510065252L220.64875,121.44679069519043L220.9045,106.87606690146707L221.16025,80.54434724287555L221.416,91.63003427332097L221.67175,115.30213555422695L221.92749999999998,101.95100966366856L222.18325,103.70280439203435L222.43900000000002,98.23807707699864L222.69475,131.74568393013695L222.9505,124.527044209567L223.20625,118.66919621554287L223.46200000000002,113.24903219396418L223.71775,109.26528245752507L223.9735,104.56990111957897L224.22925,108.80496389215642L224.48499999999999,111.24781192432751L224.74075,113.35488536141135L224.9965,102.39093407717617L225.25224999999998,109.20956299521707L225.508,104.8184826590798L225.76375000000002,126.02309105613016L226.0195,113.67158551649615L226.27525,107.0836453004317L226.531,107.90688462690875L226.78675,102.53134528073399L227.0425,109.34704321080989L227.29825,124.98579753528942L227.554,113.1618391383778L227.80974999999998,115.56078373302113L228.0655,132.14431363886052L228.32125000000002,121.45891362970525L228.577,113.82372067191385L228.83275,116.64771990342572L229.0885,109.77725393121892L229.34425000000002,102.66540345278652L229.6,99.11125061728738L229.85575,108.5830988450484L230.1115,111.83113991130482L230.36724999999998,109.26011102849787L230.623,90.96776910261676L230.87875,112.33531587774104L231.13449999999997,121.30760713057086L231.39025,124.90761228041217L231.64600000000002,116.14939056743275L231.90175,107.21147320487283L232.1575,123.37590252269398L232.41325,113.11928610368207L232.669,108.11535306410357L232.92475,96.81571925770153L233.1805,105.40776469490744L233.43625,112.17926762320779L233.69199999999998,118.71210219643332L233.94774999999998,119.50110574202105L234.20350000000002,112.53301178325306L234.45925,109.32845982638271L234.715,115.65261112559925L234.97075,109.45848213542591L235.22650000000002,104.51389009302312L235.48225,98.98883966966108L235.738,101.88418006896973L235.99375,111.69553184509277L236.24949999999998,120.80427516590466L236.50525,110.99982885880902L236.76100000000002,104.3068180951205L237.01674999999997,105.0255393114957L237.2725,116.38664713772862L237.52825,114.66104715520686L237.784,99.57393238761209L238.03975,119.63685191761364L238.2955,124.48070083964954L238.55125,118.70760596882214L238.807,109.20344014601275L239.06275,109.80843596024945L239.3185,115.32543000307949L239.57424999999998,106.96230853687634L239.83,101.20402206074108L240.08575000000002,100.74672655625776L240.3415,125.08207511901855L240.59725,124.59447227824818L240.853,121.2232683355158L241.10875000000001,113.89810024608265L241.3645,108.90016729181463L241.62025,106.09769777818158L241.876,100.05366299369119L242.13174999999998,117.58890464089133L242.3875,123.00223992087625L242.64325000000002,126.63097182187168L242.899,110.0461835861206L243.15475,104.05785291845149L243.4105,111.97064573114568L243.66625,102.15430667183615L243.922,108.85440705039285L244.17775,110.3147296038541L244.4335,136.5651181827892L244.68925,133.75529818101361L244.945,106.44987669858067L245.20075,111.44428019090131L245.45649999999998,116.39761916073887L245.71225,120.42146665399724L245.96800000000002,129.34558842398903L246.22375,127.22551735964687L246.4795,125.44752788543701L246.73525,133.40793774344704L246.991,133.04147217490456L247.24675,130.95626605640757L247.5025,136.38368849320844L247.75825,128.93279483101585L248.01399999999998,133.7494975870306L248.26975,116.72522995688699L248.52550000000002,116.31280465559527L248.78125,109.58092377402566L249.037,122.2444337498058L249.29275,134.35311230746183L249.5485,134.2071306922219L249.80425,133.07418875260785L250.06,133.01702681454745L250.31575,129.15702308307993L250.5715,128.97616117650813L250.82725,131.3627526543357L251.083,132.5088917125355L251.33874999999998,143.05819259990346L251.5945,106.31169059059836L251.85025000000002,117.0707796270197L252.106,134.61963272094727L252.36175,128.56279980052602L252.6175,132.784481308677L252.87325,138.77046411687678L253.129,127.22272448106244L253.38475,123.0511459870772L253.6405,116.22298752177845L253.89624999999998,106.55881430886008L254.152,129.17463970184326L254.40775000000002,131.6558974872936L254.6635,116.53686410730535L254.91925,125.71277462352406L255.175,124.80623999508946L255.43075,130.29323361136696L255.6865,125.63722879236394L255.94225,124.50109499151057L256.19800000000004,134.76165520061147L256.45375,138.96268168362704L256.7095,143.68744962865657L256.96525,146.28455049341375L257.221,121.81878063895486L257.47675,128.76074123382568L257.7325,137.64323069832543L257.98825,133.71176303516734L258.24399999999997,136.0575662092729L258.49975,146.31422866474497L258.75550000000004,137.12246626073664L259.01125,129.8411862633445L259.267,133.6292043165727L259.52275000000003,145.7486400604248L259.7785,142.84570364518598L260.03425,142.60878467559814L260.29,132.40758080915973L260.54575,134.39043253118342L260.8015,136.7194323973222L261.05725,152.14496118372136L261.313,139.93586176091975L261.56875,134.6183743910356L261.8245,132.54857514121315L262.08025000000004,128.14270175587046L262.336,128.42970839413732L262.59175,109.67578957297586L262.8475,133.2011266188188L263.10325,134.77968614751643L263.359,143.89636308496648L263.61475,125.40627921711315L263.8705,127.79176581989636L264.12624999999997,124.0797079259699L264.382,137.89218052950773L264.63775000000004,134.33640107241544L264.8935,136.26825974204323L265.14925,135.6596423929388L265.40500000000003,135.7877772071145L265.66075,137.10512586073443L265.9165,144.1593693819913L266.17225,132.23558859391645L266.428,118.83259495821865L266.68375,112.83086768063633L266.9395,125.23302867195822L267.19525,131.55176301435992L267.451,125.75706169822L267.70675,128.3331699371338L267.96250000000003,132.55658548528498L268.21825,134.5111861662431L268.474,128.26626361500132L268.72975,128.91112700375646L268.9855,124.25104028528386L269.24125,135.71104977347633L269.497,138.555289701982L269.75275,142.97721446644175L270.00849999999997,135.97232203050092L270.26425,137.2124675403942L270.52000000000004,139.64976050636986L270.77575,122.39951523867519L271.0315,134.08878629857844L271.28725000000003,142.51695728302002L271.543,146.83979623967952L271.79875,133.31049390272662L272.0545,138.6696135781028L272.31025,142.63768022710627L272.566,149.4001753546975L272.82175,150.10071216930044L273.0775,150.55097944086248L273.33325,138.56560186906293L273.589,132.23267295143822L273.84475000000003,135.9869155883789L274.1005,140.7512748891657L274.35625,141.61138942024925L274.612,141.38561127402565L274.86775,137.23843210393733L275.1235,139.51132887059993L275.37925,149.7544872977517L275.635,149.52428965135053L275.89074999999997,143.4720143404874L276.1465,137.57482051849365L276.40225000000004,133.240610556169L276.658,132.0396113829179L276.91375,126.70067102258855L277.1695,138.44458736072886L277.42525,129.88977007432416L277.681,132.20348583568227L277.93675,137.26605398004705L278.1925,134.54279786890203L278.44825,142.00593722950327L278.704,155.81171920082787L278.95975,129.2444770119407L279.2155,123.40522774783047L279.47125,147.74751247059214L279.72700000000003,146.16557693481445L279.98275,148.14770741896197L280.2385,156.88341730291194L280.49425,139.66591930389404L280.75,137.85321833870628" style="fill: none;" fill="none"></path></g></g></g></g></g></g><g transform="translate(30, 177)" clip-path="url(#clip_1)"><clipPath id="clip_1"><rect width="300" height="23"></rect></clipPath><g><g><line x1="0" y1="0" x2="0" y2="5" style="visibility: inherit;" fill="rgb(0, 0, 0)" stroke="rgb(204, 204, 204)" stroke-width="1px"></line><line x1="25" y1="0" x2="25" y2="5" style="visibility: inherit;" fill="rgb(0, 0, 0)" stroke="rgb(204, 204, 204)" stroke-width="1px"></line><line x1="50" y1="0" x2="50" y2="5" style="visibility: inherit;" fill="rgb(0, 0, 0)" stroke="rgb(204, 204, 204)" stroke-width="1px"></line><line x1="75" y1="0" x2="75" y2="5" style="visibility: inherit;" fill="rgb(0, 0, 0)" stroke="rgb(204, 204, 204)" stroke-width="1px"></line><line x1="100" y1="0" x2="100" y2="5" style="visibility: inherit;" fill="rgb(0, 0, 0)" stroke="rgb(204, 204, 204)" stroke-width="1px"></line><line x1="125" y1="0" x2="125" y2="5" style="visibility: inherit;" fill="rgb(0, 0, 0)" stroke="rgb(204, 204, 204)" stroke-width="1px"></line><line x1="150" y1="0" x2="150" y2="5" style="visibility: inherit;" fill="rgb(0, 0, 0)" stroke="rgb(204, 204, 204)" stroke-width="1px"></line><line x1="175" y1="0" x2="175" y2="5" style="visibility: inherit;" fill="rgb(0, 0, 0)" stroke="rgb(204, 204, 204)" stroke-width="1px"></line><line x1="200" y1="0" x2="200" y2="5" style="visibility: inherit;" fill="rgb(0, 0, 0)" stroke="rgb(204, 204, 204)" stroke-width="1px"></line><line x1="225" y1="0" x2="225" y2="5" style="visibility: inherit;" fill="rgb(0, 0, 0)" stroke="rgb(204, 204, 204)" stroke-width="1px"></line><line x1="250" y1="0" x2="250" y2="5" style="visibility: inherit;" fill="rgb(0, 0, 0)" stroke="rgb(204, 204, 204)" stroke-width="1px"></line><line x1="275" y1="0" x2="275" y2="5" style="visibility: inherit;" fill="rgb(0, 0, 0)" stroke="rgb(204, 204, 204)" stroke-width="1px"></line><line x1="300" y1="0" x2="300" y2="5" style="visibility: inherit;" fill="rgb(0, 0, 0)" stroke="rgb(204, 204, 204)" stroke-width="1px"></line></g><g transform="translate(0, 8)"><text x="0" y="0" dx="0em" dy="0.95em" style="text-anchor: middle; visibility: hidden; font-family: Roboto, sans-serif; font-size: 12px; font-weight: 200;" fill="rgb(33, 33, 33)" stroke="none" stroke-width="1px">-200k</text><text x="25" y="0" dx="0em" dy="0.95em" style="text-anchor: middle; visibility: inherit; font-family: Roboto, sans-serif; font-size: 12px; font-weight: 200;" fill="rgb(33, 33, 33)" stroke="none" stroke-width="1px">0</text><text x="50" y="0" dx="0em" dy="0.95em" style="text-anchor: middle; visibility: hidden; font-family: Roboto, sans-serif; font-size: 12px; font-weight: 200;" fill="rgb(33, 33, 33)" stroke="none" stroke-width="1px">200k</text><text x="75" y="0" dx="0em" dy="0.95em" style="text-anchor: middle; visibility: inherit; font-family: Roboto, sans-serif; font-size: 12px; font-weight: 200;" fill="rgb(33, 33, 33)" stroke="none" stroke-width="1px">400k</text><text x="100" y="0" dx="0em" dy="0.95em" style="text-anchor: middle; visibility: hidden; font-family: Roboto, sans-serif; font-size: 12px; font-weight: 200;" fill="rgb(33, 33, 33)" stroke="none" stroke-width="1px">600k</text><text x="125" y="0" dx="0em" dy="0.95em" style="text-anchor: middle; visibility: inherit; font-family: Roboto, sans-serif; font-size: 12px; font-weight: 200;" fill="rgb(33, 33, 33)" stroke="none" stroke-width="1px">800k</text><text x="150" y="0" dx="0em" dy="0.95em" style="text-anchor: middle; visibility: hidden; font-family: Roboto, sans-serif; font-size: 12px; font-weight: 200;" fill="rgb(33, 33, 33)" stroke="none" stroke-width="1px">1M</text><text x="175" y="0" dx="0em" dy="0.95em" style="text-anchor: middle; visibility: inherit; font-family: Roboto, sans-serif; font-size: 12px; font-weight: 200;" fill="rgb(33, 33, 33)" stroke="none" stroke-width="1px">1.2M</text><text x="200" y="0" dx="0em" dy="0.95em" style="text-anchor: middle; visibility: hidden; font-family: Roboto, sans-serif; font-size: 12px; font-weight: 200;" fill="rgb(33, 33, 33)" stroke="none" stroke-width="1px">1.4M</text><text x="225" y="0" dx="0em" dy="0.95em" style="text-anchor: middle; visibility: inherit; font-family: Roboto, sans-serif; font-size: 12px; font-weight: 200;" fill="rgb(33, 33, 33)" stroke="none" stroke-width="1px">1.6M</text><text x="250" y="0" dx="0em" dy="0.95em" style="text-anchor: middle; visibility: hidden; font-family: Roboto, sans-serif; font-size: 12px; font-weight: 200;" fill="rgb(33, 33, 33)" stroke="none" stroke-width="1px">1.8M</text><text x="275" y="0" dx="0em" dy="0.95em" style="text-anchor: middle; visibility: inherit; font-family: Roboto, sans-serif; font-size: 12px; font-weight: 200;" fill="rgb(33, 33, 33)" stroke="none" stroke-width="1px">2M</text><text x="300" y="0" dx="0em" dy="0.95em" style="text-anchor: middle; visibility: hidden; font-family: Roboto, sans-serif; font-size: 12px; font-weight: 200;" fill="rgb(33, 33, 33)" stroke="none" stroke-width="1px">2.2M</text></g><line x1="0" y1="0" x2="300" y2="0" fill="rgb(0, 0, 0)" stroke="rgb(204, 204, 204)" stroke-width="1px"></line></g></g></g></g></svg>