<svg viewBox="0 0 2066 400" xmlns="http://www.w3.org/2000/svg"><g><g><g><g><g><line x1="60" y1="377" x2="55" y2="377" style="visibility: inherit;" fill="rgb(0, 0, 0)" stroke="rgb(204, 204, 204)" stroke-width="1px"></line><line x1="60" y1="335.11111111111103" x2="55" y2="335.11111111111103" style="visibility: inherit;" fill="rgb(0, 0, 0)" stroke="rgb(204, 204, 204)" stroke-width="1px"></line><line x1="60" y1="293.2222222222221" x2="55" y2="293.2222222222221" style="visibility: inherit;" fill="rgb(0, 0, 0)" stroke="rgb(204, 204, 204)" stroke-width="1px"></line><line x1="60" y1="251.3333333333332" x2="55" y2="251.3333333333332" style="visibility: inherit;" fill="rgb(0, 0, 0)" stroke="rgb(204, 204, 204)" stroke-width="1px"></line><line x1="60" y1="209.44444444444426" x2="55" y2="209.44444444444426" style="visibility: inherit;" fill="rgb(0, 0, 0)" stroke="rgb(204, 204, 204)" stroke-width="1px"></line><line x1="60" y1="167.5555555555553" x2="55" y2="167.5555555555553" style="visibility: inherit;" fill="rgb(0, 0, 0)" stroke="rgb(204, 204, 204)" stroke-width="1px"></line><line x1="60" y1="125.66666666666634" x2="55" y2="125.66666666666634" style="visibility: inherit;" fill="rgb(0, 0, 0)" stroke="rgb(204, 204, 204)" stroke-width="1px"></line><line x1="60" y1="83.7777777777774" x2="55" y2="83.7777777777774" style="visibility: inherit;" fill="rgb(0, 0, 0)" stroke="rgb(204, 204, 204)" stroke-width="1px"></line><line x1="60" y1="41.88888888888849" x2="55" y2="41.88888888888849" style="visibility: inherit;" fill="rgb(0, 0, 0)" stroke="rgb(204, 204, 204)" stroke-width="1px"></line><line x1="60" y1="0" x2="55" y2="0" style="visibility: inherit;" fill="rgb(0, 0, 0)" stroke="rgb(204, 204, 204)" stroke-width="1px"></line></g><g transform="translate(50, 0)"><text x="0" y="377" dx="0em" dy="0.3em" style="text-anchor: end; visibility: hidden; font-family: Roboto, sans-serif; font-size: 12px; font-weight: 200;" fill="rgb(33, 33, 33)" stroke="none" stroke-width="1px">-1.8</text><text x="0" y="335.11111111111103" dx="0em" dy="0.3em" style="text-anchor: end; visibility: inherit; font-family: Roboto, sans-serif; font-size: 12px; font-weight: 200;" fill="rgb(33, 33, 33)" stroke="none" stroke-width="1px">-1.78</text><text x="0" y="293.2222222222221" dx="0em" dy="0.3em" style="text-anchor: end; visibility: inherit; font-family: Roboto, sans-serif; font-size: 12px; font-weight: 200;" fill="rgb(33, 33, 33)" stroke="none" stroke-width="1px">-1.76</text><text x="0" y="251.3333333333332" dx="0em" dy="0.3em" style="text-anchor: end; visibility: inherit; font-family: Roboto, sans-serif; font-size: 12px; font-weight: 200;" fill="rgb(33, 33, 33)" stroke="none" stroke-width="1px">-1.74</text><text x="0" y="209.44444444444426" dx="0em" dy="0.3em" style="text-anchor: end; visibility: inherit; font-family: Roboto, sans-serif; font-size: 12px; font-weight: 200;" fill="rgb(33, 33, 33)" stroke="none" stroke-width="1px">-1.72</text><text x="0" y="167.5555555555553" dx="0em" dy="0.3em" style="text-anchor: end; visibility: inherit; font-family: Roboto, sans-serif; font-size: 12px; font-weight: 200;" fill="rgb(33, 33, 33)" stroke="none" stroke-width="1px">-1.7</text><text x="0" y="125.66666666666634" dx="0em" dy="0.3em" style="text-anchor: end; visibility: inherit; font-family: Roboto, sans-serif; font-size: 12px; font-weight: 200;" fill="rgb(33, 33, 33)" stroke="none" stroke-width="1px">-1.68</text><text x="0" y="83.7777777777774" dx="0em" dy="0.3em" style="text-anchor: end; visibility: inherit; font-family: Roboto, sans-serif; font-size: 12px; font-weight: 200;" fill="rgb(33, 33, 33)" stroke="none" stroke-width="1px">-1.66</text><text x="0" y="41.88888888888849" dx="0em" dy="0.3em" style="text-anchor: end; visibility: inherit; font-family: Roboto, sans-serif; font-size: 12px; font-weight: 200;" fill="rgb(33, 33, 33)" stroke="none" stroke-width="1px">-1.64</text><text x="0" y="0" dx="0em" dy="0.3em" style="text-anchor: end; visibility: hidden; font-family: Roboto, sans-serif; font-size: 12px; font-weight: 200;" fill="rgb(33, 33, 33)" stroke="none" stroke-width="1px">-1.62</text></g><line x1="60" y1="0" x2="60" y2="377" fill="rgb(0, 0, 0)" stroke="rgb(204, 204, 204)" stroke-width="1px"></line></g></g><g transform="translate(60, 0)" clip-path="url(#clip_0)"><clipPath id="clip_0"><rect width="2006" height="377"></rect></clipPath><g><g><g><line x1="0" y1="0" x2="0" y2="377" fill="rgb(0, 0, 0)" stroke="rgb(66, 66, 66)" stroke-width="1px" opacity="0.25"></line><line x1="167.16666666666666" y1="0" x2="167.16666666666666" y2="377" fill="rgb(0, 0, 0)" stroke="rgb(66, 66, 66)" stroke-width="1px" opacity="0.25"></line><line x1="334.3333333333333" y1="0" x2="334.3333333333333" y2="377" fill="rgb(0, 0, 0)" stroke="rgb(66, 66, 66)" stroke-width="1px" opacity="0.25"></line><line x1="501.5" y1="0" x2="501.5" y2="377" fill="rgb(0, 0, 0)" stroke="rgb(66, 66, 66)" stroke-width="1px" opacity="0.25"></line><line x1="668.6666666666666" y1="0" x2="668.6666666666666" y2="377" fill="rgb(0, 0, 0)" stroke="rgb(66, 66, 66)" stroke-width="1px" opacity="0.25"></line><line x1="835.8333333333334" y1="0" x2="835.8333333333334" y2="377" fill="rgb(0, 0, 0)" stroke="rgb(66, 66, 66)" stroke-width="1px" opacity="0.25"></line><line x1="1003" y1="0" x2="1003" y2="377" fill="rgb(0, 0, 0)" stroke="rgb(66, 66, 66)" stroke-width="1px" opacity="0.25"></line><line x1="1170.1666666666667" y1="0" x2="1170.1666666666667" y2="377" fill="rgb(0, 0, 0)" stroke="rgb(66, 66, 66)" stroke-width="1px" opacity="0.25"></line><line x1="1337.3333333333333" y1="0" x2="1337.3333333333333" y2="377" fill="rgb(0, 0, 0)" stroke="rgb(66, 66, 66)" stroke-width="1px" opacity="0.25"></line><line x1="1504.5" y1="0" x2="1504.5" y2="377" fill="rgb(0, 0, 0)" stroke="rgb(66, 66, 66)" stroke-width="1px" opacity="0.25"></line><line x1="1671.6666666666667" y1="0" x2="1671.6666666666667" y2="377" fill="rgb(0, 0, 0)" stroke="rgb(66, 66, 66)" stroke-width="1px" opacity="0.25"></line><line x1="1838.8333333333333" y1="0" x2="1838.8333333333333" y2="377" fill="rgb(0, 0, 0)" stroke="rgb(66, 66, 66)" stroke-width="1px" opacity="0.25"></line><line x1="2006" y1="0" x2="2006" y2="377" fill="rgb(0, 0, 0)" stroke="rgb(66, 66, 66)" stroke-width="1px" opacity="0.25"></line></g><g><line x1="0" y1="377" x2="2006" y2="377" fill="rgb(0, 0, 0)" stroke="rgb(66, 66, 66)" stroke-width="1px" opacity="0.25"></line><line x1="0" y1="335.11111111111103" x2="2006" y2="335.11111111111103" fill="rgb(0, 0, 0)" stroke="rgb(66, 66, 66)" stroke-width="1px" opacity="0.25"></line><line x1="0" y1="293.2222222222221" x2="2006" y2="293.2222222222221" fill="rgb(0, 0, 0)" stroke="rgb(66, 66, 66)" stroke-width="1px" opacity="0.25"></line><line x1="0" y1="251.3333333333332" x2="2006" y2="251.3333333333332" fill="rgb(0, 0, 0)" stroke="rgb(66, 66, 66)" stroke-width="1px" opacity="0.25"></line><line x1="0" y1="209.44444444444426" x2="2006" y2="209.44444444444426" fill="rgb(0, 0, 0)" stroke="rgb(66, 66, 66)" stroke-width="1px" opacity="0.25"></line><line x1="0" y1="167.5555555555553" x2="2006" y2="167.5555555555553" fill="rgb(0, 0, 0)" stroke="rgb(66, 66, 66)" stroke-width="1px" opacity="0.25"></line><line x1="0" y1="125.66666666666634" x2="2006" y2="125.66666666666634" fill="rgb(0, 0, 0)" stroke="rgb(66, 66, 66)" stroke-width="1px" opacity="0.25"></line><line x1="0" y1="83.7777777777774" x2="2006" y2="83.7777777777774" fill="rgb(0, 0, 0)" stroke="rgb(66, 66, 66)" stroke-width="1px" opacity="0.25"></line><line x1="0" y1="41.88888888888849" x2="2006" y2="41.88888888888849" fill="rgb(0, 0, 0)" stroke="rgb(66, 66, 66)" stroke-width="1px" opacity="0.25"></line><line x1="0" y1="0" x2="2006" y2="0" fill="rgb(0, 0, 0)" stroke="rgb(66, 66, 66)" stroke-width="1px" opacity="0.25"></line></g></g></g><g><g><line x1="0" y1="-3393.0000000000014" x2="2006" y2="-3393.0000000000014" fill="rgb(0, 0, 0)" stroke="rgb(153, 153, 153)" stroke-width="1.5px"></line></g></g><g><g><line x1="167.16666666666666" y1="0" x2="167.16666666666666" y2="377" fill="rgb(0, 0, 0)" stroke="rgb(153, 153, 153)" stroke-width="1.5px"></line></g></g><g><g><g><g><g><path stroke="rgb(255, 112, 67)" stroke-width="2px" d="M170.58689666666666,130.2336527771418L172.29701166666666,334.2364318370818L174.00712666666666,334.2364318370818L175.71724166666667,309.704894542694L177.42735666666667,294.53026127815235L179.13747166666667,294.53026127815235L180.84758666666667,305.0399250984191L182.55770166666665,308.8285274505614L184.26781666666668,308.8285274505614L185.97793166666668,291.9713193045721L187.68804666666665,261.2338046762677L189.39816166666668,261.2338046762677L191.10827666666665,249.03507436646345L192.81839166666668,255.0290757285223L194.52850666666666,255.0290757285223L196.23862166666666,265.6638278431362L197.9487366666667,277.98939418792713L199.65885166666666,277.98939418792713L201.36896666666667,277.5499622556897L203.07908166666667,287.7707495159572L204.78919666666667,287.7707495159572L206.49931166666667,265.1569830576578L208.20942666666667,259.78417865435273L209.91954166666665,244.8742032580904L211.62965666666668,244.8742032580904L213.33977166666668,243.73417700661543L215.04988666666665,245.54258921411287L216.76000166666668,245.54258921411287L218.47011666666666,242.8450763755373L220.18023166666666,240.41072334183576L221.89034666666666,240.41072334183576L223.60046166666666,234.7395546436308L225.3105766666667,215.3738393253749L227.02069166666666,215.3738393253749L228.73080666666667,219.85729342036763L230.44092166666667,224.78891815079572L232.15103666666667,224.78891815079572L233.86115166666664,218.35323776139143L235.57126666666667,217.62742604149702L237.28138166666668,217.62742604149702L238.99149666666668,223.12756583425715L240.70161166666668,230.44810234175776L242.41172666666665,230.44810234175776L244.12184166666668,230.02315168910542L245.83195666666666,227.85969845453883L247.54207166666666,226.1429177920022L249.25218666666666,226.1429177920022L250.96230166666666,223.71655442979585L252.6724166666667,223.33904245164643L254.3825316666667,223.33904245164643L256.09264666666667,217.68435245090046L257.80276166666664,213.28354152043647L259.51287666666667,213.28354152043647L261.2229916666667,211.97448378139057L262.9331066666666,205.13033143679286L264.64322166666665,205.13033143679286L266.3533366666667,193.95927262306196L268.06345166666665,189.79940022362587L269.7735666666667,189.79940022362587L271.48368166666666,190.29850501484322L273.19379666666663,189.60140617688484L274.90391166666666,189.60140617688484L276.6140266666667,193.682879924774L278.3241416666667,189.12177620993708L280.03425666666664,189.12177620993708L281.74437166666667,183.32477018568233L283.4544866666667,179.46950401200172L285.16460166666667,175.15982527203016L286.87471666666664,175.15982527203016L288.5848316666667,176.45839656723854L290.29494666666665,177.67482405238667L292.0050616666667,177.67482405238667L293.7151766666667,182.70007774564937L295.4252916666666,186.83523209889717L297.13540666666665,186.83523209889717L298.8455216666667,194.48534255557576L300.55563666666666,193.91283265749598L302.2657516666667,193.91283265749598L303.97586666666666,197.94062580002662L305.68598166666663,199.94828044043635L307.39609666666666,199.94828044043635L309.1062116666667,206.093586206436L310.81632666666667,203.6407570574017L312.52644166666664,203.6407570574017L314.2365566666667,194.23192016283656L315.9466716666667,203.74412343237117L317.6567866666667,203.74412343237117L319.36690166666665,204.25820885764216L321.0770166666667,198.76755679978248L322.78713166666665,196.93442654609663L324.4972466666667,196.93442654609663L326.20736166666666,194.05390029483357L327.91747666666663,195.39341865645503L329.62759166666666,195.39341865645503L331.3377066666667,196.57489132881147L333.04782166666666,198.39503836631758L334.75793666666664,198.39503836631758L336.46805166666667,193.74604826503315L338.1781666666667,193.24244928359968L339.88828166666667,193.24244928359968L341.5983966666667,188.18099239137422L343.3085116666667,188.25764330228156L345.01862666666665,188.25764330228156L346.7287416666667,180.7630817625256L348.4388566666667,187.25918404261256L350.1489716666666,187.25918404261256L351.85908666666666,188.42043285899678L353.5692016666667,194.07687060038234L355.27931666666666,194.07687060038234L356.9894316666667,199.76052316029853L358.69954666666666,198.90138379732753L360.40966166666664,198.90138379732753L362.11977666666667,186.91862429512855L363.8298916666667,189.79865119192317L365.5400066666666,182.59671137067988L367.25012166666664,182.59671137067988L368.9602366666667,187.1278538174098L370.6703516666667,184.03909675280238L372.3804666666667,184.03909675280238L374.09058166666665,188.1759988466897L375.8006966666667,185.43579120106153L377.51081166666665,185.43579120106153L379.2209266666667,181.5652947160931L380.9310416666667,178.67303363482142L382.64115666666663,178.67303363482142L384.35127166666666,176.78397568066896L386.0613866666667,170.11984062194807L387.77150166666667,170.11984062194807L389.48161666666664,171.28783072365638L391.19173166666667,170.68985374768556L392.90184666666664,170.68985374768556L394.6119616666667,168.7313855224184L396.3220766666667,171.51229055722536L398.0321916666666,171.51229055722536L399.74230666666665,157.47268999947426L401.4524216666667,150.91017357508326L403.1625366666667,151.348856475618L404.8726516666666,151.348856475618L406.58276666666666,148.86806347635041L408.2928816666667,146.02074429723933L410.00299666666666,146.02074429723933L411.7131116666667,151.18332046932625L413.42322666666666,141.17975240283522L415.13334166666664,141.17975240283522L416.84345666666667,133.4694697327082L418.5535716666667,134.87615127033638L420.2636866666667,134.87615127033638L421.97380166666665,138.68248070610878L423.6839166666667,141.0137170420751L425.39403166666665,141.0137170420751L427.1041466666667,142.33900380134565L428.81426166666665,150.27599340014967L430.5243766666667,150.27599340014967L432.23449166666666,149.70622995164643L433.9446066666667,134.6417043473984L435.6547216666667,134.6417043473984L437.36483666666663,138.75713419914229L439.07495166666666,132.34517314698945L440.7850666666667,126.1307067871092L442.49518166666667,126.1307067871092L444.20529666666664,130.38071266810078L445.91541166666667,125.25683646731888L447.62552666666664,125.25683646731888L449.3356416666667,116.84171496497243L451.0457566666667,110.83672780460763L452.7558716666666,110.83672780460763L454.46598666666665,105.48414725727487L456.1761016666667,106.41369560029752L457.88621666666666,106.41369560029752L459.5963316666667,108.84580153889108L461.30644666666666,108.71247389581448L463.0165616666667,108.71247389581448L464.72667666666666,111.94928956031782L466.4367916666667,102.98063362969272L468.14690666666667,102.98063362969272L469.85702166666664,105.58152137862294L471.56713666666667,106.66611928409982L473.2772516666667,106.66611928409982L474.9873666666667,102.11275556352383L476.69748166666665,100.61668957604282L478.4075966666667,102.90298400984852L480.11771166666665,102.90298400984852L481.8278266666667,104.89141350322281L483.53794166666665,100.45315098762491L485.2480566666666,100.45315098762491L486.95817166666666,105.45094018512283L488.6682866666667,107.39842261208408L490.37840166666666,107.39842261208408L492.08851666666664,103.66874408721907L493.79863166666667,100.1750105486974L495.5087466666667,100.1750105486974L497.21886166666667,101.25860974523738L498.9289766666667,106.1570274035134L500.6390916666667,106.1570274035134L502.34920666666665,110.9855354362062L504.0593216666666,103.11396127276932L505.7694366666667,103.11396127276932L507.4795516666666,104.91313542260043L509.1896666666667,99.72584120432516L510.8997816666667,99.72584120432516L512.6098966666666,94.48961024814163L514.3200116666667,99.81996952162831L516.0301266666667,99.81996952162831L517.7402416666667,105.54132334391257L519.4503566666667,114.75691005918696L521.1604716666666,118.36973963843434L522.8705866666667,118.36973963843434L524.5807016666666,116.8966439565021L526.2908166666667,121.98731308513199L528.0009316666667,121.98731308513199L529.7110466666667,119.44859496752402L531.4211616666666,117.79048845503047L533.1312766666666,117.79048845503047L534.8413916666666,126.66851154963156L536.5515066666667,126.01435719595997L538.2616216666667,126.01435719595997L539.9717366666667,124.01094706853213L541.6818516666667,122.74158800972816L543.3919666666666,122.74158800972816L545.1020816666667,109.53441135088583L546.8121966666666,111.06892763243764L548.5223116666667,111.06892763243764L550.2324266666667,108.20712717374148L551.9425416666667,110.979792859819L553.6526566666666,110.979792859819L555.3627716666666,107.68929658995717L557.0728866666667,111.27316361003433L558.7830016666667,117.95552510685373L560.4931166666667,117.95552510685373L562.2032316666667,120.9858576986523L563.9133466666666,114.98136989275595L565.6234616666667,114.98136989275595L567.3335766666667,111.94704246520979L569.0436916666666,114.61634177631784L570.7538066666667,114.61634177631784L572.4639216666667,114.10724989573141L574.1740366666667,110.60977119869638L575.8841516666666,110.60977119869638L577.5942666666666,109.91167365180104L579.3043816666667,111.2207313908469L581.0144966666667,111.2207313908469L582.7246116666666,110.89889743592984L584.4347266666667,105.36180541250422L586.1448416666666,105.36180541250422L587.8549566666667,113.87779651747792L589.5650716666667,110.94333998362204L591.2751866666666,110.94333998362204L592.9853016666667,108.54593918058589L594.6954166666667,113.98465837372653L596.4055316666667,109.64352030224252L598.1156466666666,109.64352030224252L599.8257616666666,111.53906986448482L601.5358766666667,103.1796263853707L603.2459916666667,103.1796263853707L604.9561066666668,100.99694800376875L606.6662216666667,104.75608844227243L608.3763366666666,104.75608844227243L610.0864516666667,101.20318139923923L611.7965666666666,104.59254985385452L613.5066816666666,104.59254985385452L615.2167966666667,111.32459712028486L616.9269116666667,107.89528030819345L618.6370266666667,107.89528030819345L620.3471416666666,105.46317436959988L622.0572566666666,100.98271640141787L623.7673716666667,100.98271640141787L625.4774866666667,103.47624293963095L627.1876016666668,107.54223669899814L628.8977166666666,107.54223669899814L630.6078316666666,106.757001797358L632.3179466666667,103.86449103885208L634.0280616666666,103.69520987404697L635.7381766666667,103.69520987404697L637.4482916666667,109.32942634158645L639.1584066666667,106.996941619449L640.8685216666667,106.996941619449L642.5786366666666,105.911095327801L644.2887516666667,102.96889879968411L645.9988666666667,102.96889879968411L647.7089816666667,105.74805609385153L649.4190966666667,109.13892261187216L651.1292116666666,109.13892261187216L652.8393266666666,108.82732542355838L654.5494416666667,105.69612322913258L656.2595566666666,105.69612322913258L657.9696716666667,110.67518663406355L659.6797866666667,111.01275025473683L661.3899016666667,111.01275025473683L663.1000166666666,110.76357237497946L664.8101316666666,103.85874846246487L666.5202466666667,103.85874846246487L668.2303616666667,101.8208828767139L669.9404766666667,101.21666396988742L671.6505916666667,101.21666396988742L673.3607066666666,101.23089557223831L675.0708216666667,98.08621080716433L676.7809366666667,93.90137068430563L678.4910516666666,93.90137068430563L680.2011666666667,94.30235232247226L681.9112816666667,93.65344119071939L683.6213966666667,93.65344119071939L685.3315116666666,89.8136550055608L687.0416266666666,85.05805272526193L688.7517416666667,85.05805272526193L690.4618566666667,86.34963305791202L692.1719716666666,86.39757108688333L693.8820866666667,86.39757108688333L695.5922016666666,82.11510716544235L697.3023166666667,77.75798975096787L699.0124316666667,77.75798975096787L700.7225466666666,77.58196730083871L702.4326616666667,84.76667939292038L704.1427766666667,84.76667939292038L705.8528916666667,83.24589535925105L707.5630066666666,92.37159827020413L709.2731216666666,92.37159827020413L710.9832366666667,90.05434385935446L712.6933516666667,88.26241034931589L714.4034666666668,90.00765421655423L716.1135816666666,90.00765421655423L717.8236966666666,87.75157072808987L719.5338116666667,79.92144298553445L721.2439266666667,79.92144298553445L722.9540416666667,80.91515837775314L724.6641566666667,78.8720495700834L726.3742716666667,78.8720495700834L728.0843866666667,78.30128741264322L729.7945016666666,84.14822888374307L731.5046166666666,84.14822888374307L733.2147316666667,87.07993896802249L734.9248466666667,89.11630649036813L736.6349616666668,89.11630649036813L738.3450766666666,82.00250273280655L740.0551916666666,82.9118272198569L741.7653066666667,82.9118272198569L743.4754216666666,82.53007072872568L745.1855366666667,86.54463097784236L746.8956516666667,86.54463097784236L748.6057666666666,91.72892906930691L750.3158816666667,94.50034636921335L752.0259966666666,91.89571346176974L753.7361116666667,91.89571346176974L755.4462266666667,88.18800653351657L757.1563416666667,87.81573777728592L758.8664566666667,87.81573777728592L760.5765716666666,89.69830412334848L762.2866866666667,91.3589074081843L763.9968016666667,91.3589074081843L765.7069166666666,86.71366246541324L767.4170316666667,86.25225893656393L769.1271466666667,86.25225893656393L770.8372616666666,94.32657101419217L772.5473766666667,87.74183331595509L774.2574916666666,87.74183331595509L775.9676066666667,93.10465062989108L777.6777216666667,96.1499638557432L779.3878366666667,96.1499638557432L781.0979516666666,100.05841128031393L782.8080666666666,101.95321181085355L784.5181816666667,101.95321181085355L786.2282966666667,98.49618082576309L787.9384116666666,96.57616289456668L789.6485266666667,97.38661519686362L791.3586416666667,97.38661519686362L793.0687566666667,97.44828547371738L794.7788716666666,100.44516131612971L796.4889866666666,100.44516131612971L798.1991016666667,109.62429515520712L799.9092166666667,109.57311132219083L801.6193316666668,109.57311132219083L803.3294466666666,107.30704074435745L805.0395616666666,114.72470169597183L806.7496766666667,114.72470169597183L808.4597916666667,109.27674444516482L810.1699066666666,105.41348859998897L811.8800216666667,105.41348859998897L813.5901366666666,101.86732284227988L815.3002516666667,99.26343896653897L817.0103666666666,99.26343896653897L818.7204816666666,103.74414661195523L820.4305966666667,107.53749283154788L822.1407116666667,107.53749283154788L823.8508266666668,106.31831889682327L825.5609416666666,106.87360106574147L827.2710566666666,106.87360106574147L828.9811716666667,104.62950208451993L830.6912866666667,101.12353436152121L832.4014016666667,96.88476395606973L834.1115166666667,96.88476395606973L835.8216316666666,95.16274007161441L837.5317466666667,100.77873010105539L839.2418616666666,100.77873010105539L840.9519766666667,99.6769044664169L842.6620916666667,101.16048659218661L844.3722066666667,101.16048659218661L846.0823216666666,95.98467752668574L847.7924366666666,97.61931437916208L849.5025516666666,97.61931437916208L851.2126666666667,97.18287857373538L852.9227816666667,106.4965884420605L854.6328966666667,106.4965884420605L856.3430116666667,111.97450696097462L858.0531266666666,112.69757223129255L859.7632416666667,112.69757223129255L861.4733566666666,105.93081982930484L863.1834716666667,107.14200409253421L864.8935866666667,107.14200409253421L866.6037016666667,104.997776005003L868.3138166666666,103.2165786160361L870.0239316666666,99.22224222289174L871.7340466666667,99.22224222289174L873.4441616666667,102.63408162858731L875.1542766666666,103.82903687159201L876.8643916666667,103.82903687159201L878.5745066666667,101.332264529334L880.2846216666667,94.32532262802103L881.9947366666667,94.32532262802103L883.7048516666666,86.50817810164536L885.4149666666667,90.4600693649714L887.1250816666667,90.4600693649714L888.8351966666667,84.75094972716415L890.5453116666666,83.60468154483353L892.2554266666666,83.60468154483353L893.9655416666667,87.51562574174649L895.6756566666667,88.81344800525223L897.3857716666666,88.81344800525223L899.0958866666667,88.6391732957626L900.8060016666666,89.95372393396146L902.5161166666667,89.95372393396146L904.2262316666666,91.1861307621L905.9363466666666,91.24755136171957L907.6464616666667,99.45918591817203L909.3565766666667,99.45918591817203L911.0666916666668,98.06274114714711L912.7768066666666,95.08334271113058L914.4869216666666,95.08334271113058L916.1970366666667,99.2963963614568L917.9071516666667,101.81464094585824L919.6172666666668,101.81464094585824L921.3273816666667,106.57848257488656L923.0374966666666,103.00060780843081L924.7476116666667,103.00060780843081L926.4577266666666,94.18650208579152L928.1678416666666,92.11992361810452L929.8779566666667,92.11992361810452L931.5880716666667,91.59784852133839L933.2981866666667,94.20822400516916L935.0083016666666,94.20822400516916L936.7184166666666,92.91140045060031L938.4285316666667,85.67700258890768L940.1386466666667,85.67700258890768L941.8487616666667,83.48458679517093L943.5588766666667,84.87329157193484L945.2689916666666,81.28742713398385L946.9791066666667,81.28742713398385L948.6892216666666,81.37381545702597L950.3993366666667,79.93991910086716L952.1094516666667,79.93991910086716L953.8195666666667,88.81769251823404L955.5296816666666,85.27552159627261L957.2397966666666,85.27552159627261L958.9499116666667,78.62486910819986L960.6600266666667,74.67197913593698L962.3701416666667,74.67197913593698L964.0802566666667,68.03655695915201L965.7903716666666,71.7732264465754L967.5004866666666,71.7732264465754L969.2106016666667,67.78413327534976L970.9207166666666,75.38530699412009L972.6308316666667,75.38530699412009L974.3409466666667,81.70613585578049L976.0510616666667,80.59956635369174L977.7611766666666,80.59956635369174L979.4712916666666,74.59407983885849L981.1814066666667,81.04299312167679L982.8915216666667,81.04299312167679L984.6016366666666,77.11507087283645L986.3117516666667,76.84017623795383L988.0218666666666,71.44564991527115L989.7319816666667,71.44564991527115L991.4420966666667,62.893455611334694L993.1522116666666,61.28553422292055L994.8623266666667,61.28553422292055L996.5724416666667,61.78438933690371L998.2825566666667,58.91285146607272L999.9926716666666,58.91285146607272L1001.7027866666666,65.03293983141562L1003.4129016666667,65.03293983141562L1005.1230166666668,65.03293983141562L1006.8331316666666,68.81305315759427L1008.5432466666667,70.93306255340555L1010.2533616666667,70.93306255340555L1011.9634766666666,73.35618011156699L1013.6735916666667,76.26017602284732L1015.3837066666667,76.26017602284732L1017.0938216666666,75.23799742592685L1018.8039366666667,80.55212767918887L1020.5140516666667,80.55212767918887L1022.2241666666667,75.75932349099033L1023.9342816666666,78.31027579307535L1025.6443966666666,77.68882915708735L1027.3545116666667,77.68882915708735L1029.0646266666665,77.66311240196207L1030.7747416666666,76.54106291135135L1032.4848566666667,76.54106291135135L1034.1949716666666,81.42824509408719L1035.9050866666666,79.34244147936484L1037.6152016666667,79.34244147936484L1039.3253166666666,80.00258808665787L1041.0354316666667,83.3430198033649L1042.7455466666668,83.3430198033649L1044.4556616666669,86.28421762254483L1046.1657766666667,92.4881975385876L1047.8758916666666,92.4881975385876L1049.5860066666667,92.03328561782816L1051.2961216666665,97.08575412962153L1053.0062366666666,97.08575412962153L1054.7163516666667,91.39186480310208L1056.4264666666666,89.45961268742862L1058.1365816666666,89.45961268742862L1059.8466966666667,88.86113635698935L1061.5568116666668,88.28762774997269L1063.2669266666667,79.09076682726523L1064.9770416666668,79.09076682726523L1066.6871566666669,80.22729759746109L1068.3972716666667,72.1652197043099L1070.1073866666666,72.1652197043099L1071.8175016666667,75.29242706298807L1073.5276166666665,74.630033360587L1075.2377316666666,74.630033360587L1076.9478466666667,70.65666985511758L1078.6579616666666,76.26866504881099L1080.3680766666666,76.26866504881099L1082.0781916666667,78.72873483763779L1083.7883066666668,75.93784271346176L1085.4984216666667,75.93784271346176L1087.2085366666668,73.96664094924905L1088.9186516666668,57.45273900032023L1090.6287666666665,57.45273900032023L1092.3388816666666,59.24991573227756L1094.0489966666667,64.14733468161667L1095.7591116666665,64.14733468161667L1097.4692266666666,61.90398473209786L1099.1793416666667,64.7630387412175L1100.8894566666668,62.625551939010414L1102.5995716666666,62.625551939010414L1104.3096866666667,63.37832880020121L1106.0198016666668,63.117915444903716L1107.7299166666667,63.117915444903716L1109.4400316666668,67.74218749999979L1111.1501466666668,66.20866992738492L1112.8602616666665,66.20866992738492L1114.5703766666666,71.8758437898422L1116.2804916666666,70.36779329511833L1117.9906066666665,70.36779329511833L1119.7007216666666,68.52617401546884L1121.4108366666667,73.88324875301767L1123.1209516666668,73.88324875301767L1124.8310666666666,69.08744843800845L1126.5411816666667,68.22756004333475L1128.2512966666668,68.22756004333475L1129.9614116666667,67.99860601954971L1131.6715266666668,63.17409282260452L1133.3816416666668,63.17409282260452L1135.0917566666665,65.98670686615817L1136.8018716666666,70.52459059821213L1138.5119866666666,70.52459059821213L1140.2221016666667,62.14692068099955L1141.9322166666666,66.82187721464348L1143.6423316666667,65.98770557509506L1145.3524466666668,65.98770557509506L1147.0625616666666,74.57810049586807L1148.7726766666667,74.57810049586807L1150.4827916666668,74.57810049586807L1152.1929066666667,77.40919065475443L1153.9030216666667,84.14473340246394L1155.6131366666666,84.14473340246394L1157.3232516666665,86.78482047716757L1159.0333666666666,93.40376395649362L1160.7434816666666,93.40376395649362L1162.4535966666667,88.61745137638498L1164.1637116666666,84.13799211713985L1165.8738266666667,84.13799211713985L1167.5839416666668,87.80999520089871L1169.2940566666666,82.80196923679758L1171.0041716666667,82.80196923679758L1172.7142866666668,88.37002123726718L1174.4244016666667,98.18233654234126L1176.1345166666667,98.18233654234126L1177.8446316666666,93.40026847521445L1179.5547466666667,82.78648924827554L1181.2648616666665,75.91637047131839L1182.9749766666666,75.91637047131839L1184.6850916666667,74.59707596566922L1186.3952066666666,67.23134787877383L1188.1053216666667,67.23134787877383L1189.8154366666668,67.66079272164218L1191.5255516666666,66.12852353519845L1193.2356666666667,66.12852353519845L1194.9457816666668,63.3608513938054L1196.6558966666666,61.67927522129464L1198.3660116666667,61.67927522129464L1200.0761266666666,61.45606377389676L1201.7862416666667,61.05658019913547L1203.4963566666665,61.05658019913547L1205.2064716666666,65.47337047258993L1206.9165866666667,58.20901134279019L1208.6267016666666,58.20901134279019L1210.3368166666667,59.9275397459664L1212.0469316666668,58.191284259160135L1213.7570466666666,58.191284259160135L1215.4671616666667,59.91156040297593L1217.1772766666668,65.24816160731827L1218.8873916666669,58.635959413316314L1220.5975066666667,58.635959413316314L1222.3076216666666,60.13202540079733L1224.0177366666667,57.887926419575784L1225.7278516666665,57.887926419575784L1227.4379666666666,58.02824502521072L1229.1480816666667,57.12990633646628L1230.8581966666666,57.12990633646628L1232.5683116666667,60.62139277987991L1234.2784266666667,58.75979932149229L1235.9885416666666,58.75979932149229L1237.6986566666667,50.410842286215676L1239.4087716666668,46.79202045334689L1241.1188866666669,46.79202045334689L1242.8290016666665,43.99263930320719L1244.5391166666666,47.307104587554726L1246.2492316666667,47.307104587554726L1247.9593466666665,47.66763851377677L1249.6694616666666,50.45952934688973L1251.3795766666667,50.45952934688973L1253.0896916666666,48.33652382426773L1254.7998066666667,45.97732363806809L1256.5099216666667,38.80983927514798L1258.2200366666668,38.80983927514798L1259.9301516666667,37.59191372659451L1261.6402666666668,44.507473760180815L1263.3503816666669,44.507473760180815L1265.0604966666665,52.65344320403184L1266.7706116666666,53.30560013982963L1268.4807266666667,53.30560013982963L1270.1908416666665,58.61648458904671L1271.9009566666666,59.185249328613075L1273.6110716666667,59.185249328613075L1275.3211866666666,58.85068183475052L1277.0313016666666,54.40018513467557L1278.7414166666667,54.40018513467557L1280.4515316666668,51.80778641170907L1282.1616466666667,47.600974692238495L1283.8717616666668,47.600974692238495L1285.5818766666669,46.05497325791232L1287.2919916666665,45.32991056972061L1289.0021066666666,45.32991056972061L1290.7122216666667,49.40464303228568L1292.4223366666665,49.62136287159371L1294.1324516666666,49.62136287159371L1295.8425666666667,56.81006979942301L1297.5526816666668,57.80603228674973L1299.2627966666666,52.89338302612284L1300.9729116666667,52.89338302612284L1302.6830266666668,58.778275436825034L1304.3931416666667,57.33064683278379L1306.1032566666668,57.33064683278379L1307.8133716666666,57.455235772662505L1309.5234866666665,65.59895812140549L1311.2336016666666,65.59895812140549L1312.9437166666667,66.98142096731377L1314.6538316666665,64.52434730529764L1316.3639466666666,64.52434730529764L1318.0740616666667,64.70336588223758L1319.7841766666668,66.912010696199L1321.4942916666666,66.912010696199L1323.2044066666667,71.95449211862332L1324.9145216666668,68.87771956125876L1326.6246366666667,68.87771956125876L1328.3347516666668,69.28094829453342L1330.0448666666666,72.74322250154263L1331.7549816666665,72.74322250154263L1333.4650966666666,70.93755674362161L1335.1752116666667,67.86378031306778L1336.8853266666667,69.36459016799905L1338.5954416666666,69.36459016799905L1340.3055566666667,70.06942900021853L1342.0156716666668,71.76348903444058L1343.7257866666666,71.76348903444058L1345.4359016666667,64.91034830941074L1347.1460166666668,62.803322129779204L1348.8561316666667,62.803322129779204L1350.5662466666668,66.26484730508572L1352.2763616666666,68.82054347462106L1353.9864766666665,68.82054347462106L1355.6965916666666,67.83931194411362L1357.4067066666667,75.33087735705887L1359.1168216666667,75.33087735705887L1360.8269366666666,71.01870184474502L1362.5370516666667,73.49699807167032L1364.2471666666668,73.49699807167032L1365.9572816666666,78.97916110356631L1367.6673966666667,82.55703587002206L1369.3775116666668,82.55703587002206L1371.0876266666667,82.29737154642721L1372.7977416666668,79.09401263131015L1374.5078566666666,78.2653338909147L1376.2179716666667,78.2653338909147L1377.9280866666666,80.2188085714974L1379.6382016666666,80.08323383331278L1381.3483166666667,80.08323383331278L1383.0584316666666,76.28838955031479L1384.7685466666667,75.32987864812198L1386.4786616666668,75.32987864812198L1388.1887766666666,80.3968284395004L1389.8988916666667,91.27177005343948L1391.6090066666668,91.27177005343948L1393.3191216666667,78.7779212527803L1395.0292366666665,71.36750094095846L1396.7393516666666,71.36750094095846L1398.4494666666667,71.41718671056938L1400.1595816666666,72.34124215443912L1401.8696966666666,72.34124215443912L1403.5798116666667,73.11324416266525L1405.2899266666666,74.70843201213394L1407.0000416666667,74.70843201213394L1408.7101566666668,75.38530699412009L1410.4202716666666,77.61467501852229L1412.1303866666667,75.71088610755051L1413.8405016666668,75.71088610755051L1415.5506166666669,74.02781187163437L1417.2607316666665,69.37657467524191L1418.9708466666666,69.37657467524191L1420.6809616666667,76.83018914858481L1422.3910766666665,76.1605548063912L1424.1011916666666,76.1605548063912L1425.8113066666667,78.04312115245376L1427.5214216666666,84.3040274779L1429.2315366666667,84.3040274779L1430.9416516666668,85.11348107126004L1432.6517666666666,83.57122479544724L1434.3618816666667,83.57122479544724L1436.0719966666668,81.48467214902224L1437.7821116666669,81.71137907769925L1439.4922266666665,81.71137907769925L1441.2023416666666,81.30665228101924L1442.9124566666667,84.48579250441635L1444.6225716666665,84.48579250441635L1446.3326866666666,83.37797461615646L1448.0428016666667,82.30086702770639L1449.7529166666666,82.30086702770639L1451.4630316666667,78.99414173761984L1453.1731466666668,78.64509296417215L1454.8832616666668,79.14294936921841L1456.5933766666667,79.14294936921841L1458.3034916666668,75.76256929503525L1460.0136066666666,68.88296278317752L1461.7237216666665,68.88296278317752L1463.4338366666666,62.99807037247531L1465.1439516666667,64.1872830390928L1466.8540666666665,64.1872830390928L1468.5641816666666,68.95337176322916L1470.2742966666667,62.2537825372482L1471.9844116666666,62.2537825372482L1473.6945266666667,57.33314360512607L1475.4046416666667,54.660099135504616L1477.1147566666668,54.660099135504616L1478.8248716666667,58.75979932149229L1480.5349866666668,52.412254995769736L1482.2451016666666,52.412254995769736L1483.9552166666665,54.08084795210075L1485.6653316666666,51.72264647483805L1487.3754466666667,51.72264647483805L1489.0855616666665,48.20519359906492L1490.7956766666666,45.404064708285674L1492.5057916666667,48.972951094309295L1494.2159066666668,48.972951094309295L1495.9260216666667,48.49831467204605L1497.6361366666667,50.780614270104095L1499.3462516666668,50.780614270104095L1501.0563666666667,50.31421719657029L1502.7664816666668,43.8203620115914L1504.4765966666666,43.8203620115914L1506.1867116666665,45.62727615568351L1507.8968266666666,46.16333317756632L1509.6069416666667,46.16333317756632L1511.3170566666665,44.11872630649124L1513.0271716666666,45.86347081926114L1514.7372866666667,45.86347081926114L1516.4474016666668,44.896720568338836L1518.1575166666667,47.73155588573861L1519.8676316666667,47.73155588573861L1521.5777466666668,48.97494851218308L1523.2878616666667,46.88065587149705L1524.9979766666665,46.88065587149705L1526.7080916666666,39.23179380098959L1528.4182066666665,36.77571884791037L1530.1283216666666,40.96055897076902L1531.8384366666667,40.96055897076902L1533.5485516666668,39.68995152579392L1535.2586666666666,33.71542498800468L1536.9687816666667,33.71542498800468L1538.6788966666668,34.151611116197174L1540.3890116666666,38.14594750934158L1542.0991266666667,38.14594750934158L1543.8092416666668,42.43640110227775L1545.5193566666667,46.08843000729856L1547.2294716666665,46.08843000729856L1548.9395866666666,52.947313308715614L1550.6497016666665,49.74120794402207L1552.3598166666666,49.74120794402207L1554.0699316666667,54.54100309477891L1555.7800466666667,54.3647309674155L1557.4901616666666,54.3647309674155L1559.2002766666667,56.546410640080545L1560.9103916666668,51.32491064071635L1562.6205066666666,51.32491064071635L1564.3306216666667,50.192374706268104L1566.0407366666668,52.64045998785209L1567.7508516666667,55.36044377750802L1569.4609666666665,55.36044377750802L1571.1710816666666,58.717104514439676L1572.8811966666667,62.06103171242587L1574.5913116666666,62.06103171242587L1576.3014266666667,59.690346373451874L1578.0115416666667,48.938245958751914L1579.7216566666666,48.938245958751914L1581.4317716666667,52.70412768257968L1583.1418866666668,58.44370794296244L1584.8520016666666,58.44370794296244L1586.5621166666667,67.17042663362271L1588.2722316666668,66.94796421792752L1589.9823466666667,66.94796421792752L1591.6924616666665,66.77194176779831L1593.4025766666666,70.15057410134189L1595.1126916666667,70.15057410134189L1596.8228066666666,65.28761061032596L1598.5329216666667,69.02178332540703L1600.2430366666667,69.02178332540703L1601.9531516666666,70.85416454739023L1603.6632666666667,64.6197240087719L1605.3733816666668,64.6197240087719L1607.0834966666666,65.40495891041208L1608.7936116666667,69.6437293158635L1610.5037266666668,72.03738496038628L1612.2138416666667,72.03738496038628L1613.9239566666665,66.9759280681608L1615.6340716666666,64.36555258433005L1617.3441866666667,64.36555258433005L1619.0543016666666,68.24478777249637L1620.7644166666666,70.30187850528274L1622.4745316666667,70.30187850528274L1624.1846466666666,64.80498451656747L1625.8947616666667,69.8264930513168L1627.6048766666668,69.8264930513168L1629.3149916666666,74.93788539038742L1631.0251066666667,78.15073204040506L1632.7352216666668,78.15073204040506L1634.4453366666667,71.38697576522806L1636.1554516666665,70.52384156650949L1637.8655666666666,70.52384156650949L1639.5756816666667,70.288895289103L1641.2857966666666,71.01620507240274L1642.9959116666666,71.01620507240274L1644.7060266666667,71.74126776059451L1646.4161416666666,73.89598229196316L1648.1262566666667,73.17416540781637L1649.8363716666668,73.17416540781637L1651.5464866666669,75.45621532864023L1653.2566016666667,73.77413980166098L1654.9667166666668,73.77413980166098L1656.6768316666667,74.60831144120938L1658.3869466666665,75.06222465303189L1660.0970616666666,75.06222465303189L1661.8071766666667,83.3170533710054L1663.5172916666666,83.1340399583179L1665.2274066666666,83.1340399583179L1666.9375216666667,82.30935605367007L1668.6476366666666,76.42496299743631L1670.3577516666667,76.42496299743631L1672.0678666666668,78.54222594367111L1673.7779816666668,86.38558657964053L1675.4880966666667,86.38558657964053L1677.1982116666666,92.6419987148707L1678.9083266666667,95.69630032115494L1680.6184416666665,95.69630032115494L1682.3285566666666,95.38570184177804L1684.0386716666667,92.79505085945108L1685.7487866666665,91.95039277606521L1687.4589016666666,91.95039277606521L1689.1690166666667,94.60571016205661L1690.8791316666668,96.60063126352078L1692.5892466666667,96.60063126352078L1694.2993616666668,99.09390812449966L1696.0094766666668,96.19091092215626L1697.7195916666667,96.19091092215626L1699.4297066666666,104.39430612987924L1701.1398216666666,101.86832155121677L1702.8499366666665,101.86832155121677L1704.5600516666666,103.47449519899136L1706.2701666666667,110.25647791226687L1707.9802816666665,110.25647791226687L1709.6903966666666,113.44710328843838L1711.4005116666667,104.58331179618818L1713.1106266666668,104.58331179618818L1714.8207416666667,107.06784995396914L1716.5308566666668,107.82636939154713L1718.2409716666668,107.82636939154713L1719.9510866666667,111.91158829794972L1721.6612016666666,112.71729673279636L1723.3713166666666,117.46690675947383L1725.0814316666665,117.46690675947383L1726.7915466666666,119.42687304814639L1728.5016616666667,124.88931157853848L1730.2117766666668,124.88931157853848L1731.9218916666666,126.44779687457596L1733.6320066666667,126.22133962313315L1735.3421216666668,126.22133962313315L1737.0522366666667,130.24314051204237L1738.7623516666667,129.4069714546202L1740.4724666666668,129.4069714546202L1742.1825816666667,127.47471933894668L1743.8926966666666,133.91664165920662L1745.6028116666666,133.91664165920662L1747.3129266666665,133.83674494425435L1749.0230416666666,136.90552783012373L1750.7331566666667,136.90552783012373L1752.4432716666668,132.41757954491493L1754.1533866666666,131.12100566758033L1755.8635016666667,131.12100566758033L1757.5736166666668,127.00682420200754L1759.2837316666667,122.31938380665231L1760.9938466666667,122.31938380665231L1762.7039616666668,115.98607108328059L1764.4140766666665,117.14806893136746L1766.1241916666665,121.1261763042872L1767.8343066666666,121.1261763042872L1769.5444216666667,121.33915098508182L1771.2545366666666,116.74658793873239L1772.9646516666667,116.74658793873239L1774.6747666666668,113.13126158714277L1776.3848816666666,116.64871446291586L1778.0949966666667,116.64871446291586L1779.8051116666668,119.18044161796553L1781.5152266666666,120.69323598013966L1783.2253416666667,120.69323598013966L1784.9354566666668,126.15342741542374L1786.6455716666665,134.3857851823169L1788.3556866666665,134.3857851823169L1790.0658016666666,130.6968040466307L1791.7759166666667,131.4972692595586L1793.4860316666666,131.4972692595586L1795.1961466666667,133.285707288318L1796.9062616666668,133.33714079856856L1798.6163766666666,133.33714079856856L1800.3264916666667,126.77062953842994L1802.0366066666668,124.89105931917807L1803.7467216666666,126.272024101681L1805.4568366666667,126.272024101681L1807.1669516666668,121.88344735569406L1808.8770666666667,126.08226940366939L1810.5871816666665,126.08226940366939L1812.2972966666666,121.15289176834938L1814.0074116666667,122.76405896080848L1815.7175266666666,122.76405896080848L1817.4276416666667,124.93150703112265L1819.1377566666667,126.45453815990005L1820.8478716666666,126.45453815990005L1822.5579866666667,138.90419409010127L1824.2681016666668,142.97193559010805L1825.9782166666666,142.97193559010805L1827.6883316666667,143.805607875188L1829.3984466666666,140.53458642959578L1831.1085616666667,140.53458642959578L1832.8186766666665,133.57233675320924L1834.5287916666666,134.6829010910456L1836.2389066666667,134.6829010910456L1837.9490216666666,134.71960364447682L1839.6591366666667,138.43679830763057L1841.3692516666667,133.60154898961366L1843.0793666666666,133.60154898961366L1844.7894816666667,136.3672237131329L1846.4995966666668,133.2125518586899L1848.2097116666669,133.2125518586899L1849.9198266666667,131.95717472500252L1851.6299416666666,131.17169014612813L1853.3400566666667,131.17169014612813L1855.0501716666665,132.4340582423738L1856.7602866666666,136.40043078528493L1858.4704016666667,136.40043078528493L1860.1805166666666,138.40583833058656L1861.8906316666666,136.78792985280336L1863.6007466666667,136.78792985280336L1865.3108616666666,139.70740575260567L1867.0209766666667,128.01701829168513L1868.7310916666668,128.01701829168513L1870.4412066666669,124.3492597209081L1872.1513216666667,118.1904713842602L1873.8614366666666,118.1904713842602L1875.5715516666667,119.53298587269235L1877.2816666666665,114.75715973642117" style="fill: none;" fill="none"></path></g></g></g></g></g></g><g transform="translate(60, 377)" clip-path="url(#clip_1)"><clipPath id="clip_1"><rect width="2006" height="23"></rect></clipPath><g><g><line x1="0" y1="0" x2="0" y2="5" style="visibility: inherit;" fill="rgb(0, 0, 0)" stroke="rgb(204, 204, 204)" stroke-width="1px"></line><line x1="167.16666666666666" y1="0" x2="167.16666666666666" y2="5" style="visibility: inherit;" fill="rgb(0, 0, 0)" stroke="rgb(204, 204, 204)" stroke-width="1px"></line><line x1="334.3333333333333" y1="0" x2="334.3333333333333" y2="5" style="visibility: inherit;" fill="rgb(0, 0, 0)" stroke="rgb(204, 204, 204)" stroke-width="1px"></line><line x1="501.5" y1="0" x2="501.5" y2="5" style="visibility: inherit;" fill="rgb(0, 0, 0)" stroke="rgb(204, 204, 204)" stroke-width="1px"></line><line x1="668.6666666666666" y1="0" x2="668.6666666666666" y2="5" style="visibility: inherit;" fill="rgb(0, 0, 0)" stroke="rgb(204, 204, 204)" stroke-width="1px"></line><line x1="835.8333333333334" y1="0" x2="835.8333333333334" y2="5" style="visibility: inherit;" fill="rgb(0, 0, 0)" stroke="rgb(204, 204, 204)" stroke-width="1px"></line><line x1="1003" y1="0" x2="1003" y2="5" style="visibility: inherit;" fill="rgb(0, 0, 0)" stroke="rgb(204, 204, 204)" stroke-width="1px"></line><line x1="1170.1666666666667" y1="0" x2="1170.1666666666667" y2="5" style="visibility: inherit;" fill="rgb(0, 0, 0)" stroke="rgb(204, 204, 204)" stroke-width="1px"></line><line x1="1337.3333333333333" y1="0" x2="1337.3333333333333" y2="5" style="visibility: inherit;" fill="rgb(0, 0, 0)" stroke="rgb(204, 204, 204)" stroke-width="1px"></line><line x1="1504.5" y1="0" x2="1504.5" y2="5" style="visibility: inherit;" fill="rgb(0, 0, 0)" stroke="rgb(204, 204, 204)" stroke-width="1px"></line><line x1="1671.6666666666667" y1="0" x2="1671.6666666666667" y2="5" style="visibility: inherit;" fill="rgb(0, 0, 0)" stroke="rgb(204, 204, 204)" stroke-width="1px"></line><line x1="1838.8333333333333" y1="0" x2="1838.8333333333333" y2="5" style="visibility: inherit;" fill="rgb(0, 0, 0)" stroke="rgb(204, 204, 204)" stroke-width="1px"></line><line x1="2006" y1="0" x2="2006" y2="5" style="visibility: inherit;" fill="rgb(0, 0, 0)" stroke="rgb(204, 204, 204)" stroke-width="1px"></line></g><g transform="translate(0, 8)"><text x="0" y="0" dx="0em" dy="0.95em" style="text-anchor: middle; visibility: hidden; font-family: Roboto, sans-serif; font-size: 12px; font-weight: 200;" fill="rgb(33, 33, 33)" stroke="none" stroke-width="1px">-200k</text><text x="167.16666666666666" y="0" dx="0em" dy="0.95em" style="text-anchor: middle; visibility: inherit; font-family: Roboto, sans-serif; font-size: 12px; font-weight: 200;" fill="rgb(33, 33, 33)" stroke="none" stroke-width="1px">0</text><text x="334.3333333333333" y="0" dx="0em" dy="0.95em" style="text-anchor: middle; visibility: inherit; font-family: Roboto, sans-serif; font-size: 12px; font-weight: 200;" fill="rgb(33, 33, 33)" stroke="none" stroke-width="1px">200k</text><text x="501.5" y="0" dx="0em" dy="0.95em" style="text-anchor: middle; visibility: inherit; font-family: Roboto, sans-serif; font-size: 12px; font-weight: 200;" fill="rgb(33, 33, 33)" stroke="none" stroke-width="1px">400k</text><text x="668.6666666666666" y="0" dx="0em" dy="0.95em" style="text-anchor: middle; visibility: inherit; font-family: Roboto, sans-serif; font-size: 12px; font-weight: 200;" fill="rgb(33, 33, 33)" stroke="none" stroke-width="1px">600k</text><text x="835.8333333333334" y="0" dx="0em" dy="0.95em" style="text-anchor: middle; visibility: inherit; font-family: Roboto, sans-serif; font-size: 12px; font-weight: 200;" fill="rgb(33, 33, 33)" stroke="none" stroke-width="1px">800k</text><text x="1003" y="0" dx="0em" dy="0.95em" style="text-anchor: middle; visibility: inherit; font-family: Roboto, sans-serif; font-size: 12px; font-weight: 200;" fill="rgb(33, 33, 33)" stroke="none" stroke-width="1px">1M</text><text x="1170.1666666666667" y="0" dx="0em" dy="0.95em" style="text-anchor: middle; visibility: inherit; font-family: Roboto, sans-serif; font-size: 12px; font-weight: 200;" fill="rgb(33, 33, 33)" stroke="none" stroke-width="1px">1.2M</text><text x="1337.3333333333333" y="0" dx="0em" dy="0.95em" style="text-anchor: middle; visibility: inherit; font-family: Roboto, sans-serif; font-size: 12px; font-weight: 200;" fill="rgb(33, 33, 33)" stroke="none" stroke-width="1px">1.4M</text><text x="1504.5" y="0" dx="0em" dy="0.95em" style="text-anchor: middle; visibility: inherit; font-family: Roboto, sans-serif; font-size: 12px; font-weight: 200;" fill="rgb(33, 33, 33)" stroke="none" stroke-width="1px">1.6M</text><text x="1671.6666666666667" y="0" dx="0em" dy="0.95em" style="text-anchor: middle; visibility: inherit; font-family: Roboto, sans-serif; font-size: 12px; font-weight: 200;" fill="rgb(33, 33, 33)" stroke="none" stroke-width="1px">1.8M</text><text x="1838.8333333333333" y="0" dx="0em" dy="0.95em" style="text-anchor: middle; visibility: inherit; font-family: Roboto, sans-serif; font-size: 12px; font-weight: 200;" fill="rgb(33, 33, 33)" stroke="none" stroke-width="1px">2M</text><text x="2006" y="0" dx="0em" dy="0.95em" style="text-anchor: middle; visibility: hidden; font-family: Roboto, sans-serif; font-size: 12px; font-weight: 200;" fill="rgb(33, 33, 33)" stroke="none" stroke-width="1px">2.2M</text></g><line x1="0" y1="0" x2="2006" y2="0" fill="rgb(0, 0, 0)" stroke="rgb(204, 204, 204)" stroke-width="1px"></line></g></g></g></g></svg>