<svg viewBox="0 0 330 200" xmlns="http://www.w3.org/2000/svg"><g><g><g><g><g><line x1="60" y1="177" x2="55" y2="177" style="visibility: inherit;" fill="rgb(0, 0, 0)" stroke="rgb(204, 204, 204)" stroke-width="1px"></line><line x1="60" y1="151.7142857142857" x2="55" y2="151.7142857142857" style="visibility: inherit;" fill="rgb(0, 0, 0)" stroke="rgb(204, 204, 204)" stroke-width="1px"></line><line x1="60" y1="126.42857142857139" x2="55" y2="126.42857142857139" style="visibility: inherit;" fill="rgb(0, 0, 0)" stroke="rgb(204, 204, 204)" stroke-width="1px"></line><line x1="60" y1="101.1428571428571" x2="55" y2="101.1428571428571" style="visibility: inherit;" fill="rgb(0, 0, 0)" stroke="rgb(204, 204, 204)" stroke-width="1px"></line><line x1="60" y1="75.85714285714279" x2="55" y2="75.85714285714279" style="visibility: inherit;" fill="rgb(0, 0, 0)" stroke="rgb(204, 204, 204)" stroke-width="1px"></line><line x1="60" y1="50.571428571428605" x2="55" y2="50.571428571428605" style="visibility: inherit;" fill="rgb(0, 0, 0)" stroke="rgb(204, 204, 204)" stroke-width="1px"></line><line x1="60" y1="25.285714285714295" x2="55" y2="25.285714285714295" style="visibility: inherit;" fill="rgb(0, 0, 0)" stroke="rgb(204, 204, 204)" stroke-width="1px"></line><line x1="60" y1="0" x2="55" y2="0" style="visibility: inherit;" fill="rgb(0, 0, 0)" stroke="rgb(204, 204, 204)" stroke-width="1px"></line></g><g transform="translate(50, 0)"><text x="0" y="177" dx="0em" dy="0.3em" style="text-anchor: end; visibility: hidden; font-family: Roboto, sans-serif; font-size: 12px; font-weight: 200;" fill="rgb(33, 33, 33)" stroke="none" stroke-width="1px">-1.6</text><text x="0" y="151.7142857142857" dx="0em" dy="0.3em" style="text-anchor: end; visibility: inherit; font-family: Roboto, sans-serif; font-size: 12px; font-weight: 200;" fill="rgb(33, 33, 33)" stroke="none" stroke-width="1px">-1.55</text><text x="0" y="126.42857142857139" dx="0em" dy="0.3em" style="text-anchor: end; visibility: inherit; font-family: Roboto, sans-serif; font-size: 12px; font-weight: 200;" fill="rgb(33, 33, 33)" stroke="none" stroke-width="1px">-1.5</text><text x="0" y="101.1428571428571" dx="0em" dy="0.3em" style="text-anchor: end; visibility: inherit; font-family: Roboto, sans-serif; font-size: 12px; font-weight: 200;" fill="rgb(33, 33, 33)" stroke="none" stroke-width="1px">-1.45</text><text x="0" y="75.85714285714279" dx="0em" dy="0.3em" style="text-anchor: end; visibility: inherit; font-family: Roboto, sans-serif; font-size: 12px; font-weight: 200;" fill="rgb(33, 33, 33)" stroke="none" stroke-width="1px">-1.4</text><text x="0" y="50.571428571428605" dx="0em" dy="0.3em" style="text-anchor: end; visibility: inherit; font-family: Roboto, sans-serif; font-size: 12px; font-weight: 200;" fill="rgb(33, 33, 33)" stroke="none" stroke-width="1px">-1.35</text><text x="0" y="25.285714285714295" dx="0em" dy="0.3em" style="text-anchor: end; visibility: inherit; font-family: Roboto, sans-serif; font-size: 12px; font-weight: 200;" fill="rgb(33, 33, 33)" stroke="none" stroke-width="1px">-1.3</text><text x="0" y="0" dx="0em" dy="0.3em" style="text-anchor: end; visibility: hidden; font-family: Roboto, sans-serif; font-size: 12px; font-weight: 200;" fill="rgb(33, 33, 33)" stroke="none" stroke-width="1px">-1.25</text></g><line x1="60" y1="0" x2="60" y2="177" fill="rgb(0, 0, 0)" stroke="rgb(204, 204, 204)" stroke-width="1px"></line></g></g><g transform="translate(60, 0)" clip-path="url(#clip_0)"><clipPath id="clip_0"><rect width="270" height="177"></rect></clipPath><g><g><g><line x1="0" y1="0" x2="0" y2="177" fill="rgb(0, 0, 0)" stroke="rgb(66, 66, 66)" stroke-width="1px" opacity="0.25"></line><line x1="22.5" y1="0" x2="22.5" y2="177" fill="rgb(0, 0, 0)" stroke="rgb(66, 66, 66)" stroke-width="1px" opacity="0.25"></line><line x1="45" y1="0" x2="45" y2="177" fill="rgb(0, 0, 0)" stroke="rgb(66, 66, 66)" stroke-width="1px" opacity="0.25"></line><line x1="67.5" y1="0" x2="67.5" y2="177" fill="rgb(0, 0, 0)" stroke="rgb(66, 66, 66)" stroke-width="1px" opacity="0.25"></line><line x1="90" y1="0" x2="90" y2="177" fill="rgb(0, 0, 0)" stroke="rgb(66, 66, 66)" stroke-width="1px" opacity="0.25"></line><line x1="112.5" y1="0" x2="112.5" y2="177" fill="rgb(0, 0, 0)" stroke="rgb(66, 66, 66)" stroke-width="1px" opacity="0.25"></line><line x1="135" y1="0" x2="135" y2="177" fill="rgb(0, 0, 0)" stroke="rgb(66, 66, 66)" stroke-width="1px" opacity="0.25"></line><line x1="157.5" y1="0" x2="157.5" y2="177" fill="rgb(0, 0, 0)" stroke="rgb(66, 66, 66)" stroke-width="1px" opacity="0.25"></line><line x1="180" y1="0" x2="180" y2="177" fill="rgb(0, 0, 0)" stroke="rgb(66, 66, 66)" stroke-width="1px" opacity="0.25"></line><line x1="202.5" y1="0" x2="202.5" y2="177" fill="rgb(0, 0, 0)" stroke="rgb(66, 66, 66)" stroke-width="1px" opacity="0.25"></line><line x1="225" y1="0" x2="225" y2="177" fill="rgb(0, 0, 0)" stroke="rgb(66, 66, 66)" stroke-width="1px" opacity="0.25"></line><line x1="247.5" y1="0" x2="247.5" y2="177" fill="rgb(0, 0, 0)" stroke="rgb(66, 66, 66)" stroke-width="1px" opacity="0.25"></line><line x1="270" y1="0" x2="270" y2="177" fill="rgb(0, 0, 0)" stroke="rgb(66, 66, 66)" stroke-width="1px" opacity="0.25"></line></g><g><line x1="0" y1="177" x2="270" y2="177" fill="rgb(0, 0, 0)" stroke="rgb(66, 66, 66)" stroke-width="1px" opacity="0.25"></line><line x1="0" y1="151.7142857142857" x2="270" y2="151.7142857142857" fill="rgb(0, 0, 0)" stroke="rgb(66, 66, 66)" stroke-width="1px" opacity="0.25"></line><line x1="0" y1="126.42857142857139" x2="270" y2="126.42857142857139" fill="rgb(0, 0, 0)" stroke="rgb(66, 66, 66)" stroke-width="1px" opacity="0.25"></line><line x1="0" y1="101.1428571428571" x2="270" y2="101.1428571428571" fill="rgb(0, 0, 0)" stroke="rgb(66, 66, 66)" stroke-width="1px" opacity="0.25"></line><line x1="0" y1="75.85714285714279" x2="270" y2="75.85714285714279" fill="rgb(0, 0, 0)" stroke="rgb(66, 66, 66)" stroke-width="1px" opacity="0.25"></line><line x1="0" y1="50.571428571428605" x2="270" y2="50.571428571428605" fill="rgb(0, 0, 0)" stroke="rgb(66, 66, 66)" stroke-width="1px" opacity="0.25"></line><line x1="0" y1="25.285714285714295" x2="270" y2="25.285714285714295" fill="rgb(0, 0, 0)" stroke="rgb(66, 66, 66)" stroke-width="1px" opacity="0.25"></line><line x1="0" y1="0" x2="270" y2="0" fill="rgb(0, 0, 0)" stroke="rgb(66, 66, 66)" stroke-width="1px" opacity="0.25"></line></g></g></g><g><g><line x1="0" y1="-632.142857142857" x2="270" y2="-632.142857142857" fill="rgb(0, 0, 0)" stroke="rgb(153, 153, 153)" stroke-width="1.5px"></line></g></g><g><g><line x1="22.5" y1="0" x2="22.5" y2="177" fill="rgb(0, 0, 0)" stroke="rgb(153, 153, 153)" stroke-width="1.5px"></line></g></g><g><g><g><g><g><path stroke="rgb(255, 112, 67)" stroke-width="2px" d="M22.96035,162.5510031836373L23.190525,162.5510031836373L23.4207,162.5510031836373L23.650875,162.5510031836373L23.881050000000002,162.5510031836373L24.111224999999997,162.5510031836373L24.3414,162.5510031836373L24.571575,162.5510031836373L24.80175,162.5510031836373L25.031925,162.5510031836373L25.2621,162.5510031836373L25.492275000000003,162.5510031836373L25.72245,162.5510031836373L25.952625,162.5510031836373L26.1828,162.5510031836373L26.412975,162.5510031836373L26.643150000000002,162.5510031836373L26.873325,162.5510031836373L27.1035,162.5510031836373L27.333675,162.5510031836373L27.563850000000002,162.5510031836373L27.794024999999998,106.97800806590487L28.0242,106.97800806590487L28.254375,106.97800806590487L28.48455,106.97800806590487L28.714725,106.97800806590487L28.9449,106.97800806590487L29.175075,106.97800806590487L29.40525,106.97800806590487L29.635425,106.97800806590487L29.865599999999997,106.97800806590487L30.095775,106.97800806590487L30.325950000000002,25.28569017137799L30.556124999999998,25.28569017137799L30.7863,25.28569017137799L31.016475,25.28569017137799L31.24665,25.28569017137799L31.476824999999998,25.28569017137799L31.707,25.28569017137799L31.937175000000003,25.28569017137799L32.16735,25.28569017137799L32.397525,25.28569017137799L32.6277,25.28569017137799L32.857875,25.28569017137799L33.088049999999996,25.28569017137799L33.318225,25.28569017137799L33.5484,25.28569017137799L33.778575,25.28569017137799L34.00875,25.28569017137799L34.238925,25.28569017137799L34.4691,25.28569017137799L34.699275,25.28569017137799L34.92945,25.28569017137799L35.159625000000005,25.28569017137799L35.389799999999994,25.28569017137799L35.619975,25.28569017137799L35.85015,25.28569017137799L36.080325,25.28569017137799L36.310500000000005,25.28569017137799L36.540675,25.28569017137799L36.770849999999996,25.28569017137799L37.001025,25.28569017137799L37.2312,25.28569017137799L37.461375000000004,25.28569017137799L37.69155,25.28569017137799L37.921725,25.28569017137799L38.1519,25.28569017137799L38.382075,25.28569017137799L38.612249999999996,25.28569017137799L38.842425,25.28569017137799L39.0726,25.28569017137799L39.302775000000004,25.28569017137799L39.53295,25.28569017137799L39.763124999999995,25.28569017137799L39.9933,25.28569017137799L40.223475,25.28569017137799L40.45365,25.28569017137799L40.683825000000006,25.28569017137799L40.913999999999994,25.28569017137799L41.144175,25.28569017137799L41.37435,25.28569017137799L41.604525,103.44158036368232L41.8347,103.44158036368232L42.064875,103.44158036368232L42.29505,103.44158036368232L42.525225,103.44158036368232L42.7554,103.44158036368232L42.985575,103.44158036368232L43.21575,98.33331993647982L43.445925,98.33331993647982L43.676100000000005,98.33331993647982L43.906274999999994,98.33331993647982L44.136449999999996,98.33331993647982L44.366625,98.33331993647982L44.5968,98.33331993647982L44.826975000000004,98.33331993647982L45.05715,98.33331993647982L45.287324999999996,98.33331993647982L45.5175,98.33331993647982L45.747675,98.33331993647982L45.977850000000004,98.33331993647982L46.208025,98.33331993647982L46.4382,98.33331993647982L46.668375000000005,98.33331993647982L46.89855,98.33331993647982L47.128724999999996,98.33331993647982L47.3589,98.33331993647982L47.589075,98.33331993647982L47.819250000000004,98.33331993647982L48.04942500000001,98.33331993647982L48.279599999999995,98.33331993647982L48.509775,98.33331993647982L48.73995,68.07694162641252L48.970125,68.07694162641252L49.2003,68.07694162641252L49.430475,68.07694162641252L49.66065,68.07694162641252L49.890825,68.07694162641252L50.121,68.07694162641252L50.351175,68.07694162641252L50.58135,68.07694162641252L50.811525,68.07694162641252L51.0417,68.07694162641252L51.271875,68.07694162641252L51.50205,68.07694162641252L51.732225,68.07694162641252L51.9624,68.07694162641252L52.192575000000005,68.07694162641252L52.42274999999999,68.07694162641252L52.652924999999996,68.07694162641252L52.8831,68.07694162641252L53.113275,68.07694162641252L53.343450000000004,68.07694162641252L53.573625,68.07694162641252L53.8038,68.07694162641252L54.033975,68.07694162641252L54.26415,68.07694162641252L54.494324999999996,68.07694162641252L54.7245,68.07694162641252L54.954675,68.07694162641252L55.184850000000004,68.07694162641252L55.415025,68.07694162641252L55.645199999999996,68.07694162641252L55.875375,68.07694162641252L56.10555,68.07694162641252L56.335725000000004,68.07694162641252L56.565900000000006,68.07694162641252L56.796074999999995,68.07694162641252L57.02625,68.07694162641252L57.256425,68.07694162641252L57.4866,68.07694162641252L57.716775,68.07694162641252L57.94695,68.07694162641252L58.177125,68.07694162641252L58.4073,68.07694162641252L58.637475,68.07694162641252L58.86765,68.07694162641252L59.097825,68.07694162641252L59.328,68.07694162641252L59.558175000000006,68.07694162641252L59.788349999999994,84.28569419043403L60.018525,84.28569419043403L60.2487,84.28569419043403L60.478875,84.28569419043403L60.709050000000005,84.28569419043403L60.939225,84.28569419043403L61.169399999999996,84.28569419043403L61.399575,84.28569419043403L61.62975,84.28569419043403L61.859925000000004,84.28569419043403L62.0901,84.28569419043403L62.320275,84.28569419043403L62.55045,84.28569419043403L62.780625,84.28569419043403L63.010799999999996,84.28569419043403L63.240975,84.28569419043403L63.47115,84.28569419043403L63.701325000000004,84.28569419043403L63.9315,84.28569419043403L64.161675,84.28569419043403L64.39185,84.28569419043403L64.62202500000001,84.28569419043403L64.8522,103.44158036368232L65.082375,103.44158036368232L65.31255,103.44158036368232L65.542725,103.44158036368232L65.7729,103.44158036368232L66.00307500000001,103.44158036368232L66.23325,103.44158036368232L66.463425,103.44158036368232L66.6936,103.44158036368232L66.923775,103.44158036368232L67.15395000000001,103.44158036368232L67.384125,103.44158036368232L67.6143,103.44158036368232L67.84447499999999,90.3061396735055L68.07465,90.3061396735055L68.304825,90.3061396735055L68.53500000000001,90.3061396735055L68.765175,90.3061396735055L68.99534999999999,90.3061396735055L69.225525,90.3061396735055L69.4557,90.3061396735055L69.68587500000001,90.3061396735055L69.91605,90.3061396735055L70.146225,90.3061396735055L70.3764,90.3061396735055L70.60657499999999,90.3061396735055L70.83675000000001,90.3061396735055L71.066925,90.3061396735055L71.2971,90.3061396735055L71.527275,90.3061396735055L71.75745,90.3061396735055L71.987625,90.3061396735055L72.2178,90.3061396735055L72.447975,90.3061396735055L72.67815,90.3061396735055L72.908325,90.3061396735055L73.1385,90.3061396735055L73.368675,90.3061396735055L73.59885,90.3061396735055L73.829025,90.3061396735055L74.0592,90.3061396735055L74.28937499999999,90.3061396735055L74.51955000000001,90.3061396735055L74.749725,90.3061396735055L74.9799,90.3061396735055L75.210075,90.3061396735055L75.44024999999999,90.3061396735055L75.67042500000001,90.3061396735055L75.9006,90.3061396735055L76.13077500000001,90.3061396735055L76.36095,90.3061396735055L76.59112499999999,90.3061396735055L76.82130000000001,90.3061396735055L77.051475,90.3061396735055L77.28165,90.3061396735055L77.511825,90.3061396735055L77.74199999999999,90.3061396735055L77.97217500000001,90.3061396735055L78.20235,90.3061396735055L78.432525,90.3061396735055L78.6627,90.3061396735055L78.892875,90.3061396735055L79.12305,106.97800806590487L79.353225,106.97800806590487L79.5834,106.97800806590487L79.813575,106.97800806590487L80.04375,106.97800806590487L80.273925,106.97800806590487L80.5041,106.97800806590487L80.734275,106.97800806590487L80.96445,106.97800806590487L81.194625,106.97800806590487L81.4248,106.97800806590487L81.65497500000001,106.97800806590487L81.88515,106.97800806590487L82.115325,106.97800806590487L82.3455,106.97800806590487L82.57567499999999,106.97800806590487L82.80585,106.97800806590487L83.036025,106.97800806590487L83.26620000000001,106.97800806590487L83.496375,106.97800806590487L83.72654999999999,126.42857142857139L83.956725,126.42857142857139L84.1869,126.42857142857139L84.41707500000001,126.42857142857139L84.64725,126.42857142857139L84.87742499999999,126.42857142857139L85.1076,126.42857142857139L85.337775,126.42857142857139L85.56795000000001,126.42857142857139L85.798125,126.42857142857139L86.0283,126.42857142857139L86.258475,126.42857142857139L86.48864999999999,126.42857142857139L86.71882500000001,126.42857142857139L86.949,126.42857142857139L87.179175,126.42857142857139L87.40935,126.42857142857139L87.63952499999999,126.42857142857139L87.8697,126.42857142857139L88.099875,126.42857142857139L88.33005,126.42857142857139L88.560225,126.42857142857139L88.7904,126.42857142857139L89.020575,126.42857142857139L89.25075,126.42857142857139L89.480925,106.97800806590487L89.7111,106.97800806590487L89.941275,106.97800806590487L90.17145,106.97800806590487L90.40162500000001,106.97800806590487L90.6318,106.97800806590487L90.861975,106.97800806590487L91.09215,106.97800806590487L91.32232499999999,106.97800806590487L91.55250000000001,106.97800806590487L91.782675,106.97800806590487L92.01285,106.97800806590487L92.243025,106.97800806590487L92.47319999999999,106.97800806590487L92.70337500000001,106.97800806590487L92.93355,106.97800806590487L93.163725,106.97800806590487L93.3939,106.97800806590487L93.62407499999999,106.97800806590487L93.85425000000001,106.97800806590487L94.084425,106.97800806590487L94.3146,106.97800806590487L94.544775,106.97800806590487L94.77494999999999,106.97800806590487L95.005125,106.97800806590487L95.2353,106.97800806590487L95.465475,106.97800806590487L95.69565,106.97800806590487L95.925825,106.97800806590487L96.156,106.97800806590487L96.386175,106.97800806590487L96.61635,106.97800806590487L96.846525,106.97800806590487L97.0767,106.97800806590487L97.306875,106.97800806590487L97.53705000000001,106.97800806590487L97.767225,106.97800806590487L97.9974,106.97800806590487L98.227575,106.97800806590487L98.45774999999999,106.97800806590487L98.687925,106.97800806590487L98.9181,106.97800806590487L99.148275,106.97800806590487L99.37845,106.97800806590487L99.60862499999999,106.97800806590487L99.8388,106.97800806590487L100.068975,106.97800806590487L100.29915000000001,106.97800806590487L100.529325,106.97800806590487L100.75949999999999,106.97800806590487L100.989675,106.97800806590487L101.21985,106.97800806590487L101.45002500000001,106.97800806590487L101.6802,106.97800806590487L101.91037499999999,106.97800806590487L102.14055,106.97800806590487L102.370725,106.97800806590487L102.60090000000001,106.97800806590487L102.831075,106.97800806590487L103.06125,106.97800806590487L103.291425,106.97800806590487L103.52159999999999,106.97800806590487L103.751775,106.97800806590487L103.98195,106.97800806590487L104.212125,106.97800806590487L104.4423,106.97800806590487L104.672475,106.97800806590487L104.90265,106.97800806590487L105.132825,106.97800806590487L105.363,106.97800806590487L105.593175,106.97800806590487L105.82335,106.97800806590487L106.053525,106.97800806590487L106.28370000000001,106.97800806590487L106.513875,106.97800806590487L106.74405,106.97800806590487L106.974225,106.97800806590487L107.20439999999999,106.97800806590487L107.43457500000001,106.97800806590487L107.66475,106.97800806590487L107.894925,106.97800806590487L108.1251,106.97800806590487L108.35527499999999,106.97800806590487L108.58545000000001,106.97800806590487L108.815625,106.97800806590487L109.04579999999999,106.97800806590487L109.275975,106.97800806590487L109.50614999999999,106.97800806590487L109.73632500000001,106.97800806590487L109.9665,106.97800806590487L110.196675,106.97800806590487L110.42685,106.97800806590487L110.65702499999999,106.97800806590487L110.8872,106.97800806590487L111.117375,106.97800806590487L111.34755,106.97800806590487L111.577725,106.97800806590487L111.8079,106.97800806590487L112.038075,106.97800806590487L112.26825,106.97800806590487L112.498425,106.97800806590487L112.7286,106.97800806590487L112.958775,106.97800806590487L113.18895,106.97800806590487L113.41912500000001,106.97800806590487L113.6493,106.97800806590487L113.879475,106.97800806590487L114.10965,126.42857142857139L114.33982499999999,126.42857142857139L114.57000000000001,126.42857142857139L114.800175,126.42857142857139L115.03035,126.42857142857139L115.260525,126.42857142857139L115.49069999999999,126.42857142857139L115.720875,126.42857142857139L115.95105,126.42857142857139L116.18122500000001,126.42857142857139L116.4114,126.42857142857139L116.64157499999999,126.42857142857139L116.87175,126.42857142857139L117.101925,126.42857142857139L117.33210000000001,126.42857142857139L117.562275,126.42857142857139L117.79244999999999,126.42857142857139L118.022625,126.42857142857139L118.2528,126.42857142857139L118.48297500000001,126.42857142857139L118.71315,126.42857142857139L118.943325,126.42857142857139L119.1735,126.42857142857139L119.40367499999999,126.42857142857139L119.63385,126.42857142857139L119.864025,126.42857142857139L120.0942,126.42857142857139L120.324375,126.42857142857139L120.55455,106.97800806590487L120.784725,106.97800806590487L121.0149,106.97800806590487L121.245075,106.97800806590487L121.47525,106.97800806590487L121.705425,106.97800806590487L121.9356,106.97800806590487L122.165775,106.97800806590487L122.39595,106.97800806590487L122.626125,106.97800806590487L122.8563,106.97800806590487L123.086475,106.97800806590487L123.31665000000001,106.97800806590487L123.546825,106.97800806590487L123.777,106.97800806590487L124.007175,106.97800806590487L124.23734999999999,106.97800806590487L124.46752500000001,106.97800806590487L124.6977,106.97800806590487L124.92787499999999,106.97800806590487L125.15805,106.97800806590487L125.38822499999999,106.97800806590487L125.61840000000001,106.97800806590487L125.848575,106.97800806590487L126.07875,106.97800806590487L126.308925,106.97800806590487L126.53909999999999,106.97800806590487L126.76927500000001,106.97800806590487L126.99945,106.97800806590487L127.229625,106.97800806590487L127.4598,106.97800806590487L127.689975,106.97800806590487L127.92015,106.97800806590487L128.150325,106.97800806590487L128.38049999999998,106.97800806590487L128.61067500000001,106.97800806590487L128.84085,106.97800806590487L129.07102500000002,106.97800806590487L129.3012,90.3061396735055L129.531375,90.3061396735055L129.76155,90.3061396735055L129.991725,90.3061396735055L130.2219,90.3061396735055L130.452075,90.3061396735055L130.68224999999998,90.3061396735055L130.912425,90.3061396735055L131.1426,90.3061396735055L131.372775,90.3061396735055L131.60295,90.3061396735055L131.833125,90.3061396735055L132.0633,90.3061396735055L132.293475,90.3061396735055L132.52365,90.3061396735055L132.753825,90.3061396735055L132.984,90.3061396735055L133.214175,90.3061396735055L133.44435000000001,90.3061396735055L133.674525,90.3061396735055L133.9047,90.3061396735055L134.134875,90.3061396735055L134.36505,90.3061396735055L134.595225,90.3061396735055L134.8254,90.3061396735055L135.055575,90.3061396735055L135.28575,90.3061396735055L135.51592499999998,90.3061396735055L135.7461,90.3061396735055L135.97627500000002,90.3061396735055L136.20645,90.3061396735055L136.436625,90.3061396735055L136.6668,90.3061396735055L136.896975,90.3061396735055L137.12715,90.3061396735055L137.357325,90.3061396735055L137.5875,90.3061396735055L137.81767499999998,90.3061396735055L138.04785,90.3061396735055L138.278025,90.3061396735055L138.5082,90.3061396735055L138.738375,90.3061396735055L138.96855000000002,90.3061396735055L139.198725,90.3061396735055L139.4289,90.3061396735055L139.659075,90.3061396735055L139.88924999999998,90.3061396735055L140.119425,90.3061396735055L140.3496,90.3061396735055L140.579775,106.97800806590487L140.80995,106.97800806590487L141.040125,106.97800806590487L141.27030000000002,106.97800806590487L141.500475,106.97800806590487L141.73065,106.97800806590487L141.960825,106.97800806590487L142.19099999999997,106.97800806590487L142.421175,106.97800806590487L142.65135,106.97800806590487L142.881525,106.97800806590487L143.11169999999998,106.97800806590487L143.34187500000002,106.97800806590487L143.57205000000002,106.97800806590487L143.802225,106.97800806590487L144.0324,106.97800806590487L144.262575,106.97800806590487L144.49275,106.97800806590487L144.722925,106.97800806590487L144.9531,106.97800806590487L145.18327499999998,106.97800806590487L145.41344999999998,106.97800806590487L145.64362500000001,106.97800806590487L145.87380000000002,106.97800806590487L146.103975,106.97800806590487L146.33415,106.97800806590487L146.564325,42.14287723813737L146.7945,42.14287723813737L147.024675,42.14287723813737L147.25485,42.14287723813737L147.48502499999998,42.14287723813737L147.7152,42.14287723813737L147.945375,42.14287723813737L148.17555000000002,42.14287723813737L148.405725,42.14287723813737L148.6359,42.14287723813737L148.86607500000002,42.14287723813737L149.09625,42.14287723813737L149.326425,42.14287723813737L149.5566,42.14287723813737L149.78677499999998,42.14287723813737L150.01695,42.14287723813737L150.247125,42.14287723813737L150.47729999999999,42.14287723813737L150.707475,42.14287723813737L150.93765,42.14287723813737L151.16782500000002,42.14287723813737L151.398,42.14287723813737L151.628175,42.14287723813737L151.85835,42.14287723813737L152.088525,42.14287723813737L152.3187,42.14287723813737L152.548875,42.14287723813737L152.77904999999998,42.14287723813737L153.009225,42.14287723813737L153.23940000000002,42.14287723813737L153.46957500000002,42.14287723813737L153.69975,42.14287723813737L153.929925,42.14287723813737L154.1601,42.14287723813737L154.390275,42.14287723813737L154.62045,42.14287723813737L154.850625,42.14287723813737L155.08079999999998,42.14287723813737L155.31097499999998,42.14287723813737L155.54115000000002,42.14287723813737L155.771325,42.14287723813737L156.0015,42.14287723813737L156.231675,42.14287723813737L156.46185000000003,42.14287723813737L156.692025,42.14287723813737L156.9222,42.14287723813737L157.152375,42.14287723813737L157.38254999999998,42.14287723813737L157.612725,42.14287723813737L157.84290000000001,42.14287723813737L158.073075,126.42857142857139L158.30325,126.42857142857139L158.533425,126.42857142857139L158.76360000000003,103.44158036368232L158.993775,103.44158036368232L159.22395,103.44158036368232L159.454125,103.44158036368232L159.68429999999998,103.44158036368232L159.914475,103.44158036368232L160.14465,103.44158036368232L160.374825,103.44158036368232L160.605,103.44158036368232L160.83517500000002,103.44158036368232L161.06535,103.44158036368232L161.295525,103.44158036368232L161.5257,103.44158036368232L161.755875,103.44158036368232L161.98605,103.44158036368232L162.216225,103.44158036368232L162.4464,57.46753794806344L162.67657499999999,57.46753794806344L162.90675,57.46753794806344L163.13692500000002,57.46753794806344L163.3671,57.46753794806344L163.597275,57.46753794806344L163.82745,57.46753794806344L164.057625,57.46753794806344L164.2878,57.46753794806344L164.517975,57.46753794806344L164.74815,57.46753794806344L164.97832499999998,57.46753794806344L165.2085,57.46753794806344L165.43867500000002,57.46753794806344L165.66885,57.46753794806344L165.899025,57.46753794806344L166.1292,57.46753794806344L166.359375,57.46753794806344L166.58955,57.46753794806344L166.819725,57.46753794806344L167.0499,57.46753794806344L167.28007499999998,57.46753794806344L167.51025,57.46753794806344L167.74042500000002,57.46753794806344L167.9706,57.46753794806344L168.200775,57.46753794806344L168.43095,57.46753794806344L168.661125,57.46753794806344L168.8913,57.46753794806344L169.121475,57.46753794806344L169.35165,57.46753794806344L169.58182499999998,57.46753794806344L169.812,57.46753794806344L170.04217500000001,57.46753794806344L170.27235,57.46753794806344L170.502525,57.46753794806344L170.73270000000002,57.46753794806344L170.962875,57.46753794806344L171.19305,57.46753794806344L171.423225,57.46753794806344L171.65339999999998,57.46753794806344L171.883575,57.46753794806344L172.11375,57.46753794806344L172.343925,57.46753794806344L172.5741,57.46753794806344L172.804275,57.46753794806344L173.03445000000002,57.46753794806344L173.264625,57.46753794806344L173.4948,57.46753794806344L173.724975,57.46753794806344L173.95514999999997,57.46753794806344L174.185325,57.46753794806344L174.4155,57.46753794806344L174.645675,57.46753794806344L174.87584999999999,57.46753794806344L175.10602500000002,57.46753794806344L175.33620000000002,57.46753794806344L175.566375,57.46753794806344L175.79655,57.46753794806344L176.026725,57.46753794806344L176.2569,57.46753794806344L176.487075,57.46753794806344L176.71725,57.46753794806344L176.94742499999998,57.46753794806344L177.17759999999998,57.46753794806344L177.40777500000002,57.46753794806344L177.63795000000002,57.46753794806344L177.868125,57.46753794806344L178.0983,90.3061396735055L178.328475,90.3061396735055L178.55865,90.3061396735055L178.788825,90.3061396735055L179.019,90.3061396735055L179.24917499999998,90.3061396735055L179.47934999999998,90.3061396735055L179.709525,90.3061396735055L179.93970000000002,90.3061396735055L180.169875,90.3061396735055L180.40005,90.3061396735055L180.63022500000002,90.3061396735055L180.8604,90.3061396735055L181.090575,84.28569419043403L181.32075,84.28569419043403L181.55092499999998,84.28569419043403L181.7811,84.28569419043403L182.011275,84.28569419043403L182.24145,84.28569419043403L182.471625,84.28569419043403L182.7018,84.28569419043403L182.93197500000002,84.28569419043403L183.16215,84.28569419043403L183.392325,84.28569419043403L183.6225,84.28569419043403L183.85267499999998,84.28569419043403L184.08285,84.28569419043403L184.313025,84.28569419043403L184.54319999999998,84.28569419043403L184.773375,84.28569419043403L185.00355000000002,84.28569419043403L185.23372500000002,84.28569419043403L185.4639,84.28569419043403L185.694075,84.28569419043403L185.92425,84.28569419043403L186.154425,84.28569419043403L186.3846,84.28569419043403L186.614775,84.28569419043403L186.84494999999998,84.28569419043403L187.07512499999999,84.28569419043403L187.30530000000002,84.28569419043403L187.535475,84.28569419043403L187.76565,84.28569419043403L187.995825,84.28569419043403L188.226,84.28569419043403L188.456175,84.28569419043403L188.68635,84.28569419043403L188.916525,84.28569419043403L189.14669999999998,84.28569419043403L189.376875,84.28569419043403L189.60705000000002,84.28569419043403L189.837225,84.28569419043403L190.0674,84.28569419043403L190.297575,84.28569419043403L190.52775000000003,84.28569419043403L190.757925,68.07694162641252L190.9881,68.07694162641252L191.218275,68.07694162641252L191.44844999999998,68.07694162641252L191.678625,68.07694162641252L191.9088,68.07694162641252L192.138975,68.07694162641252L192.36915,68.07694162641252L192.599325,68.07694162641252L192.8295,68.07694162641252L193.059675,68.07694162641252L193.28985,68.07694162641252L193.520025,68.07694162641252L193.7502,68.07694162641252L193.980375,68.07694162641252L194.21055,68.07694162641252L194.440725,68.07694162641252L194.6709,68.07694162641252L194.90107500000002,68.07694162641252L195.13125,68.07694162641252L195.361425,68.07694162641252L195.5916,68.07694162641252L195.821775,68.07694162641252L196.05195,68.07694162641252L196.282125,68.07694162641252L196.5123,68.07694162641252L196.74247499999998,68.07694162641252L196.97265,68.07694162641252L197.20282500000002,68.07694162641252L197.433,68.07694162641252L197.663175,68.07694162641252L197.89335,68.07694162641252L198.12352499999997,68.07694162641252L198.3537,68.07694162641252L198.583875,68.07694162641252L198.81405,68.07694162641252L199.04422499999998,68.07694162641252L199.2744,68.07694162641252L199.50457500000002,68.07694162641252L199.73475,68.07694162641252L199.964925,68.07694162641252L200.1951,68.07694162641252L200.425275,68.07694162641252L200.65545,68.07694162641252L200.885625,68.07694162641252L201.1158,68.07694162641252L201.34597499999998,68.07694162641252L201.57615,68.07694162641252L201.80632500000002,68.07694162641252L202.0365,75.8571307999747L202.266675,75.8571307999747L202.49685000000002,75.8571307999747L202.727025,75.8571307999747L202.9572,75.8571307999747L203.187375,75.8571307999747L203.41754999999998,75.8571307999747L203.647725,75.8571307999747L203.8779,75.8571307999747L204.108075,75.8571307999747L204.33825,75.8571307999747L204.568425,75.8571307999747L204.79860000000002,75.8571307999747L205.028775,75.8571307999747L205.25895,75.8571307999747L205.489125,75.8571307999747L205.71929999999998,75.8571307999747L205.949475,75.8571307999747L206.17965,75.8571307999747L206.409825,75.8571307999747L206.64,75.8571307999747L206.870175,75.8571307999747L207.10035000000002,75.8571307999747L207.330525,75.8571307999747L207.5607,75.8571307999747L207.790875,106.97800806590487L208.02105,106.97800806590487L208.251225,106.97800806590487L208.4814,106.97800806590487L208.71157499999998,106.97800806590487L208.94174999999998,106.97800806590487L209.17192500000002,106.97800806590487L209.40210000000002,106.97800806590487L209.632275,106.97800806590487L209.86245,106.97800806590487L210.092625,106.97800806590487L210.3228,106.97800806590487L210.552975,106.97800806590487L210.78315,106.97800806590487L211.01332499999998,106.97800806590487L211.24349999999998,106.97800806590487L211.47367500000001,106.97800806590487L211.70385000000002,106.97800806590487L211.934025,106.97800806590487L212.1642,106.97800806590487L212.39437500000003,84.28569419043403L212.62455,84.28569419043403L212.854725,84.28569419043403L213.0849,84.28569419043403L213.31507499999998,84.28569419043403L213.54525,84.28569419043403L213.775425,84.28569419043403L214.0056,84.28569419043403L214.235775,84.28569419043403L214.46595,84.28569419043403L214.69612500000002,84.28569419043403L214.9263,84.28569419043403L215.156475,84.28569419043403L215.38665,84.28569419043403L215.61682499999998,84.28569419043403L215.847,84.28569419043403L216.077175,84.28569419043403L216.30734999999999,84.28569419043403L216.537525,84.28569419043403L216.76770000000002,84.28569419043403L216.99787500000002,84.28569419043403L217.22805,84.28569419043403L217.458225,84.28569419043403L217.6884,84.28569419043403L217.918575,84.28569419043403L218.14875,84.28569419043403L218.378925,84.28569419043403L218.60909999999998,84.28569419043403L218.839275,84.28569419043403L219.06945000000002,84.28569419043403L219.299625,84.28569419043403L219.5298,84.28569419043403L219.759975,84.28569419043403L219.99015,84.28569419043403L220.220325,84.28569419043403L220.4505,84.28569419043403L220.680675,84.28569419043403L220.91084999999998,84.28569419043403L221.14102499999998,84.28569419043403L221.37120000000002,84.28569419043403L221.601375,84.28569419043403L221.83155,84.28569419043403L222.061725,84.28569419043403L222.29190000000003,84.28569419043403L222.522075,84.28569419043403L222.75225,84.28569419043403L222.982425,84.28569419043403L223.21259999999998,84.28569419043403L223.442775,84.28569419043403L223.67295000000001,106.97800806590487L223.903125,106.97800806590487L224.1333,106.97800806590487L224.363475,106.97800806590487L224.59365,106.97800806590487L224.823825,106.97800806590487L225.054,106.97800806590487L225.284175,106.97800806590487L225.51434999999998,106.97800806590487L225.744525,106.97800806590487L225.9747,106.97800806590487L226.204875,106.97800806590487L226.43505,106.97800806590487L226.66522500000002,106.97800806590487L226.8954,106.97800806590487L227.125575,106.97800806590487L227.35575,106.97800806590487L227.585925,106.97800806590487L227.8161,106.97800806590487L228.046275,106.97800806590487L228.27645,106.97800806590487L228.50662499999999,106.97800806590487L228.7368,106.97800806590487L228.96697500000002,106.97800806590487L229.19715,106.97800806590487L229.427325,106.97800806590487L229.6575,106.97800806590487L229.88767499999997,106.97800806590487L230.11785,106.97800806590487L230.348025,106.97800806590487L230.5782,106.97800806590487L230.80837499999998,106.97800806590487L231.03855000000001,106.97800806590487L231.26872500000002,106.97800806590487L231.4989,106.97800806590487L231.729075,106.97800806590487L231.95925,106.97800806590487L232.189425,106.97800806590487L232.4196,106.97800806590487L232.649775,106.97800806590487L232.87995,106.97800806590487L233.11012499999998,106.97800806590487L233.3403,106.97800806590487L233.57047500000002,106.97800806590487L233.80065,106.97800806590487L234.030825,106.97800806590487L234.261,106.97800806590487L234.491175,106.97800806590487L234.72135,106.97800806590487L234.951525,106.97800806590487L235.18169999999998,106.97800806590487L235.411875,106.97800806590487L235.64205,106.97800806590487L235.87222500000001,106.97800806590487L236.1024,106.97800806590487L236.332575,106.97800806590487L236.56275000000002,106.97800806590487L236.792925,106.97800806590487L237.0231,106.97800806590487L237.253275,106.97800806590487L237.48344999999998,106.97800806590487L237.713625,106.97800806590487L237.9438,106.97800806590487L238.173975,106.97800806590487L238.40415,106.97800806590487L238.634325,106.97800806590487L238.86450000000002,106.97800806590487L239.094675,106.97800806590487L239.32485,106.97800806590487L239.555025,106.97800806590487L239.78519999999997,106.97800806590487L240.015375,106.97800806590487L240.24555,106.97800806590487L240.47572499999998,106.97800806590487L240.70589999999999,106.97800806590487L240.93607500000002,106.97800806590487L241.16625000000002,106.97800806590487L241.396425,106.97800806590487L241.6266,106.97800806590487L241.856775,106.97800806590487L242.08695,106.97800806590487L242.317125,106.97800806590487L242.5473,106.97800806590487L242.77747499999998,106.97800806590487L243.00764999999998,106.97800806590487L243.23782500000002,106.97800806590487L243.46800000000002,106.97800806590487L243.698175,106.97800806590487L243.92835,106.97800806590487L244.15852500000003,126.42857142857139L244.3887,126.42857142857139L244.618875,126.42857142857139L244.84905,126.42857142857139L245.07922499999998,126.42857142857139L245.3094,126.42857142857139L245.539575,126.42857142857139L245.76975,126.42857142857139L245.999925,126.42857142857139L246.2301,126.42857142857139L246.46027500000002,126.42857142857139L246.69045,126.42857142857139L246.920625,143.28569820949005L247.1508,143.28569820949005L247.38097499999998,143.28569820949005L247.61115,143.28569820949005L247.841325,126.42857142857139L248.0715,126.42857142857139L248.301675,126.42857142857139L248.53185,126.42857142857139L248.76202500000002,126.42857142857139L248.9922,126.42857142857139L249.222375,126.42857142857139L249.45255,126.42857142857139L249.682725,126.42857142857139L249.9129,126.42857142857139L250.143075,126.42857142857139L250.37324999999998,126.42857142857139L250.603425,126.42857142857139L250.83360000000002,126.42857142857139L251.063775,126.42857142857139L251.29395,126.42857142857139L251.524125,126.42857142857139L251.7543,126.42857142857139L251.984475,126.42857142857139L252.21465,126.42857142857139L252.444825,126.42857142857139L252.67499999999998,126.42857142857139" style="fill: none;" fill="none"></path></g></g></g></g></g></g><g transform="translate(60, 177)" clip-path="url(#clip_1)"><clipPath id="clip_1"><rect width="270" height="23"></rect></clipPath><g><g><line x1="0" y1="0" x2="0" y2="5" style="visibility: inherit;" fill="rgb(0, 0, 0)" stroke="rgb(204, 204, 204)" stroke-width="1px"></line><line x1="22.5" y1="0" x2="22.5" y2="5" style="visibility: inherit;" fill="rgb(0, 0, 0)" stroke="rgb(204, 204, 204)" stroke-width="1px"></line><line x1="45" y1="0" x2="45" y2="5" style="visibility: inherit;" fill="rgb(0, 0, 0)" stroke="rgb(204, 204, 204)" stroke-width="1px"></line><line x1="67.5" y1="0" x2="67.5" y2="5" style="visibility: inherit;" fill="rgb(0, 0, 0)" stroke="rgb(204, 204, 204)" stroke-width="1px"></line><line x1="90" y1="0" x2="90" y2="5" style="visibility: inherit;" fill="rgb(0, 0, 0)" stroke="rgb(204, 204, 204)" stroke-width="1px"></line><line x1="112.5" y1="0" x2="112.5" y2="5" style="visibility: inherit;" fill="rgb(0, 0, 0)" stroke="rgb(204, 204, 204)" stroke-width="1px"></line><line x1="135" y1="0" x2="135" y2="5" style="visibility: inherit;" fill="rgb(0, 0, 0)" stroke="rgb(204, 204, 204)" stroke-width="1px"></line><line x1="157.5" y1="0" x2="157.5" y2="5" style="visibility: inherit;" fill="rgb(0, 0, 0)" stroke="rgb(204, 204, 204)" stroke-width="1px"></line><line x1="180" y1="0" x2="180" y2="5" style="visibility: inherit;" fill="rgb(0, 0, 0)" stroke="rgb(204, 204, 204)" stroke-width="1px"></line><line x1="202.5" y1="0" x2="202.5" y2="5" style="visibility: inherit;" fill="rgb(0, 0, 0)" stroke="rgb(204, 204, 204)" stroke-width="1px"></line><line x1="225" y1="0" x2="225" y2="5" style="visibility: inherit;" fill="rgb(0, 0, 0)" stroke="rgb(204, 204, 204)" stroke-width="1px"></line><line x1="247.5" y1="0" x2="247.5" y2="5" style="visibility: inherit;" fill="rgb(0, 0, 0)" stroke="rgb(204, 204, 204)" stroke-width="1px"></line><line x1="270" y1="0" x2="270" y2="5" style="visibility: inherit;" fill="rgb(0, 0, 0)" stroke="rgb(204, 204, 204)" stroke-width="1px"></line></g><g transform="translate(0, 8)"><text x="0" y="0" dx="0em" dy="0.95em" style="text-anchor: middle; visibility: hidden; font-family: Roboto, sans-serif; font-size: 12px; font-weight: 200;" fill="rgb(33, 33, 33)" stroke="none" stroke-width="1px">-200k</text><text x="22.5" y="0" dx="0em" dy="0.95em" style="text-anchor: middle; visibility: inherit; font-family: Roboto, sans-serif; font-size: 12px; font-weight: 200;" fill="rgb(33, 33, 33)" stroke="none" stroke-width="1px">0</text><text x="45" y="0" dx="0em" dy="0.95em" style="text-anchor: middle; visibility: hidden; font-family: Roboto, sans-serif; font-size: 12px; font-weight: 200;" fill="rgb(33, 33, 33)" stroke="none" stroke-width="1px">200k</text><text x="67.5" y="0" dx="0em" dy="0.95em" style="text-anchor: middle; visibility: inherit; font-family: Roboto, sans-serif; font-size: 12px; font-weight: 200;" fill="rgb(33, 33, 33)" stroke="none" stroke-width="1px">400k</text><text x="90" y="0" dx="0em" dy="0.95em" style="text-anchor: middle; visibility: hidden; font-family: Roboto, sans-serif; font-size: 12px; font-weight: 200;" fill="rgb(33, 33, 33)" stroke="none" stroke-width="1px">600k</text><text x="112.5" y="0" dx="0em" dy="0.95em" style="text-anchor: middle; visibility: inherit; font-family: Roboto, sans-serif; font-size: 12px; font-weight: 200;" fill="rgb(33, 33, 33)" stroke="none" stroke-width="1px">800k</text><text x="135" y="0" dx="0em" dy="0.95em" style="text-anchor: middle; visibility: hidden; font-family: Roboto, sans-serif; font-size: 12px; font-weight: 200;" fill="rgb(33, 33, 33)" stroke="none" stroke-width="1px">1M</text><text x="157.5" y="0" dx="0em" dy="0.95em" style="text-anchor: middle; visibility: inherit; font-family: Roboto, sans-serif; font-size: 12px; font-weight: 200;" fill="rgb(33, 33, 33)" stroke="none" stroke-width="1px">1.2M</text><text x="180" y="0" dx="0em" dy="0.95em" style="text-anchor: middle; visibility: hidden; font-family: Roboto, sans-serif; font-size: 12px; font-weight: 200;" fill="rgb(33, 33, 33)" stroke="none" stroke-width="1px">1.4M</text><text x="202.5" y="0" dx="0em" dy="0.95em" style="text-anchor: middle; visibility: inherit; font-family: Roboto, sans-serif; font-size: 12px; font-weight: 200;" fill="rgb(33, 33, 33)" stroke="none" stroke-width="1px">1.6M</text><text x="225" y="0" dx="0em" dy="0.95em" style="text-anchor: middle; visibility: hidden; font-family: Roboto, sans-serif; font-size: 12px; font-weight: 200;" fill="rgb(33, 33, 33)" stroke="none" stroke-width="1px">1.8M</text><text x="247.5" y="0" dx="0em" dy="0.95em" style="text-anchor: middle; visibility: inherit; font-family: Roboto, sans-serif; font-size: 12px; font-weight: 200;" fill="rgb(33, 33, 33)" stroke="none" stroke-width="1px">2M</text><text x="270" y="0" dx="0em" dy="0.95em" style="text-anchor: middle; visibility: hidden; font-family: Roboto, sans-serif; font-size: 12px; font-weight: 200;" fill="rgb(33, 33, 33)" stroke="none" stroke-width="1px">2.2M</text></g><line x1="0" y1="0" x2="270" y2="0" fill="rgb(0, 0, 0)" stroke="rgb(204, 204, 204)" stroke-width="1px"></line></g></g></g></g></svg>